M48
; DRILL file {KiCad 5.1.5+dfsg1-2build2} date  4.06.2020 (чт) 11:32:53
; FORMAT={-:-/ absolute / metric / decimal}
; #@! TF.CreationDate,2020-06-04T11:32:53+03:00
; #@! TF.GenerationSoftware,Kicad,Pcbnew,5.1.5+dfsg1-2build2
; #@! TF.FileFunction,Plated,1,2,PTH
FMAT,2
METRIC
T1C0.400
T2C0.600
T3C0.700
T4C0.900
T5C1.000
T6C1.016
T7C1.100
%
G90
G05
T1
X65.4Y-61.12
X67.87Y-47.04
X68.8Y-60.5
X68.986Y-71.501
X69.37Y-58.61
X70.25Y-48.78
X71.183Y-89.027
X71.36Y-53.35
X72.983Y-54.224
X73.32Y-62.73
X73.762Y-46.349
X73.8Y-54.9
X73.91Y-48.02
X74.301Y-60.844
X74.625Y-75.565
X75.08Y-73.08
X75.133Y-48.007
X76.08Y-73.072
X76.14Y-91.19
X76.27Y-88.38
X76.708Y-74.498
X77.1Y-56.9
X77.2Y-61.4
X77.29Y-90.77
X77.299Y-53.898
X77.9Y-65.505
X78.13Y-82.19
X78.746Y-58.1
X78.76Y-63.53
X78.77Y-57.1
X78.77Y-62.43
X79.77Y-75.03
X81.746Y-62.26
X82.459Y-57.29
X82.6Y-56.3
X82.682Y-70.458
X82.7Y-59.12
X83.5Y-66.2
X83.639Y-55.859
X84.381Y-55.116
X85.61Y-84.0
X85.84Y-62.83
X86.74Y-84.48
X87.498Y-77.458
X87.52Y-71.02
X87.69Y-86.98
X89.87Y-67.186
X90.203Y-84.597
X90.604Y-76.316
X91.595Y-90.042
X91.739Y-67.993
X91.81Y-97.3
X92.22Y-60.93
X92.237Y-76.724
X92.29Y-78.32
X92.98Y-67.993
X93.166Y-87.684
X93.26Y-77.025
X93.276Y-81.036
X93.52Y-79.8
X93.578Y-76.072
X93.978Y-85.366
X94.08Y-82.96
X94.36Y-87.73
X94.361Y-75.45
X94.39Y-72.59
X94.42Y-76.76
X94.9Y-89.65
X95.6Y-56.45
X95.73Y-76.53
X95.77Y-60.94
X95.802Y-73.356
X95.83Y-67.69
X95.931Y-70.632
X95.936Y-90.36
X96.82Y-75.56
X97.058Y-70.229
X97.266Y-66.657
X97.359Y-77.019
X97.689Y-67.563
X97.9Y-55.68
X98.04Y-82.33
X98.1Y-79.5
X98.357Y-65.717
X98.41Y-60.91
X98.68Y-88.11
X100.082Y-55.55
X101.03Y-87.27
X101.962Y-88.012
X102.26Y-83.39
X102.53Y-70.892
X103.175Y-80.929
X103.476Y-71.362
X103.858Y-66.86
X104.57Y-56.95
X104.84Y-79.19
X105.33Y-70.55
X105.39Y-66.861
X105.451Y-61.311
X106.95Y-89.0
X107.1Y-80.6
X107.221Y-78.919
X107.245Y-87.881
X107.5Y-62.872
X107.64Y-60.608
X107.67Y-90.94
X107.788Y-82.213
X107.807Y-79.893
X108.13Y-77.139
X108.34Y-89.31
X108.398Y-70.915
X108.55Y-67.25
X108.909Y-59.761
X108.93Y-96.94
X109.18Y-76.42
X109.551Y-90.539
X109.58Y-55.19
X109.651Y-59.019
X109.789Y-79.804
X109.825Y-70.654
X109.899Y-75.661
X110.46Y-88.89
X110.788Y-79.759
X110.86Y-59.04
X110.92Y-70.902
X110.926Y-75.691
X111.38Y-77.5
X111.6Y-72.718
X111.823Y-59.627
X111.924Y-75.628
X112.309Y-78.039
X112.465Y-66.09
X112.649Y-60.642
X112.922Y-75.691
X113.36Y-71.24
X113.449Y-60.077
X113.877Y-77.764
X113.92Y-83.13
X114.164Y-76.267
X114.29Y-65.62
X114.816Y-61.656
X115.018Y-73.131
X115.21Y-58.398
X115.59Y-73.951
X115.66Y-87.22
X115.71Y-62.78
X115.73Y-64.87
X116.03Y-83.01
X116.53Y-74.292
X116.6Y-64.14
X116.734Y-78.112
X116.78Y-71.42
X117.565Y-67.615
X118.4Y-85.38
X118.61Y-82.99
X118.64Y-61.836
X119.01Y-87.8
X119.71Y-55.07
X120.59Y-84.57
X120.61Y-83.36
X120.631Y-82.209
X122.11Y-62.7
X122.271Y-63.932
X122.445Y-90.38
X122.478Y-64.91
X123.25Y-56.57
X123.27Y-59.11
X123.43Y-91.81
X126.16Y-59.56
T3
X77.78Y-84.54
X77.78Y-86.54
T4
X88.436Y-61.026
X102.932Y-75.522
X66.052Y-94.592
X66.055Y-96.603
T5
X83.48Y-93.73
X86.98Y-93.73
X90.48Y-93.73
X70.43Y-67.52
X70.43Y-70.06
X70.43Y-72.6
X70.43Y-75.14
X70.43Y-77.68
X72.97Y-67.52
X72.97Y-70.06
X72.97Y-72.6
X72.97Y-75.14
X72.97Y-77.68
X121.59Y-68.34
X121.59Y-70.88
T6
X83.484Y-50.552
X84.5Y-48.012
X86.024Y-50.552
X87.04Y-48.012
X88.564Y-50.552
X89.58Y-48.012
X91.104Y-50.552
X92.12Y-48.012
X93.644Y-50.552
X93.644Y-93.732
X93.644Y-96.272
X94.66Y-48.012
X96.184Y-50.552
X96.184Y-93.732
X96.184Y-96.272
X97.2Y-48.012
X98.724Y-50.552
X98.724Y-93.732
X98.724Y-96.272
X99.74Y-48.012
X101.262Y-50.552
X101.264Y-93.732
X101.264Y-96.272
X102.278Y-48.012
X103.804Y-93.732
X103.804Y-96.272
X106.344Y-48.012
X106.344Y-50.552
X106.344Y-93.732
X106.344Y-96.272
X108.884Y-48.012
X108.884Y-50.552
X111.424Y-48.012
X111.424Y-50.552
X111.424Y-93.732
X111.424Y-96.272
X113.964Y-48.012
X113.964Y-50.552
X113.964Y-93.732
X113.964Y-96.272
X116.504Y-48.012
X116.504Y-50.552
X116.504Y-93.732
X116.504Y-96.272
X119.044Y-48.012
X119.044Y-50.552
X119.044Y-93.732
X119.044Y-96.272
X121.584Y-48.012
X121.584Y-50.552
X121.584Y-93.732
X121.584Y-96.272
X124.124Y-48.012
X124.124Y-50.552
X124.124Y-93.732
X124.124Y-96.272
T7
X124.13Y-68.35
X124.13Y-70.89
X124.13Y-73.43
X124.13Y-75.97
X124.13Y-78.51
X124.13Y-81.05
X124.13Y-83.59
X124.13Y-86.13
X126.67Y-68.35
X126.67Y-70.89
X126.67Y-73.43
X126.67Y-75.97
X126.67Y-78.51
X126.67Y-81.05
X126.67Y-83.59
X126.67Y-86.13
T2
G00X63.75Y-52.1
M15
G01X63.15Y-52.1
M16
G05
G00X63.75Y-59.3
M15
G01X63.15Y-59.3
M16
G05
G00X67.22Y-52.1
M15
G01X66.62Y-52.1
M16
G05
G00X67.22Y-59.3
M15
G01X66.62Y-59.3
M16
G05
G00X66.7Y-86.75
M15
G01X66.7Y-88.75
M16
G05
G00X68.9Y-92.2
M15
G01X70.9Y-92.2
M16
G05
G00X73.2Y-86.75
M15
G01X73.2Y-88.75
M16
G05
T0
M30
