G04 #@! TF.GenerationSoftware,KiCad,Pcbnew,5.1.5+dfsg1-2build2*
G04 #@! TF.CreationDate,2020-11-03T16:42:57+02:00*
G04 #@! TF.ProjectId,OLIMEXINO-STM32F3_RevC,4f4c494d-4558-4494-9e4f-2d53544d3332,rev?*
G04 #@! TF.SameCoordinates,Original*
G04 #@! TF.FileFunction,Soldermask,Top*
G04 #@! TF.FilePolarity,Negative*
%FSLAX46Y46*%
G04 Gerber Fmt 4.6, Leading zero omitted, Abs format (unit mm)*
G04 Created by KiCad (PCBNEW 5.1.5+dfsg1-2build2) date 2020-11-03 16:42:57*
%MOMM*%
%LPD*%
G04 APERTURE LIST*
%ADD10C,0.100000*%
G04 APERTURE END LIST*
D10*
G36*
X71731493Y-97316524D02*
G01*
X71813534Y-97350506D01*
X71887368Y-97399841D01*
X71950159Y-97462632D01*
X71999494Y-97536466D01*
X72033476Y-97618507D01*
X72050800Y-97705600D01*
X72050800Y-97794400D01*
X72033476Y-97881493D01*
X71999494Y-97963534D01*
X71950159Y-98037368D01*
X71887368Y-98100159D01*
X71813534Y-98149494D01*
X71731493Y-98183476D01*
X71644400Y-98200800D01*
X71555600Y-98200800D01*
X71468507Y-98183476D01*
X71386466Y-98149494D01*
X71312632Y-98100159D01*
X71249841Y-98037368D01*
X71200506Y-97963534D01*
X71166524Y-97881493D01*
X71149200Y-97794400D01*
X71149200Y-97705600D01*
X71166524Y-97618507D01*
X71200506Y-97536466D01*
X71249841Y-97462632D01*
X71312632Y-97399841D01*
X71386466Y-97350506D01*
X71468507Y-97316524D01*
X71555600Y-97299200D01*
X71644400Y-97299200D01*
X71731493Y-97316524D01*
G37*
G36*
X80161652Y-94636689D02*
G01*
X80471214Y-94764914D01*
X80521202Y-94798315D01*
X80749814Y-94951068D01*
X80986743Y-95187997D01*
X81037215Y-95263534D01*
X81172897Y-95466597D01*
X81301122Y-95776159D01*
X81366490Y-96104786D01*
X81366490Y-96439856D01*
X81301122Y-96768483D01*
X81172897Y-97078045D01*
X81149615Y-97112889D01*
X80986743Y-97356645D01*
X80749814Y-97593574D01*
X80582154Y-97705600D01*
X80471214Y-97779728D01*
X80161652Y-97907953D01*
X79833025Y-97973321D01*
X79497955Y-97973321D01*
X79169328Y-97907953D01*
X78859766Y-97779728D01*
X78748826Y-97705600D01*
X78581166Y-97593574D01*
X78344237Y-97356645D01*
X78181365Y-97112889D01*
X78158083Y-97078045D01*
X78029858Y-96768483D01*
X77964490Y-96439856D01*
X77964490Y-96104786D01*
X78029858Y-95776159D01*
X78158083Y-95466597D01*
X78293765Y-95263534D01*
X78344237Y-95187997D01*
X78581166Y-94951068D01*
X78809778Y-94798315D01*
X78859766Y-94764914D01*
X79169328Y-94636689D01*
X79497955Y-94571321D01*
X79833025Y-94571321D01*
X80161652Y-94636689D01*
G37*
G36*
X69364800Y-97847800D02*
G01*
X67739200Y-97847800D01*
X67739200Y-96730200D01*
X69364800Y-96730200D01*
X69364800Y-97847800D01*
G37*
G36*
X75460800Y-97847800D02*
G01*
X73835200Y-97847800D01*
X73835200Y-96730200D01*
X75460800Y-96730200D01*
X75460800Y-97847800D01*
G37*
G36*
X62662322Y-96315048D02*
G01*
X62722889Y-96327095D01*
X62779943Y-96350728D01*
X62836997Y-96374360D01*
X62939687Y-96442975D01*
X63027025Y-96530313D01*
X63095640Y-96633003D01*
X63142905Y-96747112D01*
X63167000Y-96868245D01*
X63167000Y-96991755D01*
X63142905Y-97112888D01*
X63095640Y-97226997D01*
X63027025Y-97329687D01*
X62939687Y-97417025D01*
X62836997Y-97485640D01*
X62779943Y-97509272D01*
X62722889Y-97532905D01*
X62704986Y-97536466D01*
X62601755Y-97557000D01*
X62478245Y-97557000D01*
X62375014Y-97536466D01*
X62357111Y-97532905D01*
X62300057Y-97509272D01*
X62243003Y-97485640D01*
X62140313Y-97417025D01*
X62052975Y-97329687D01*
X61984360Y-97226997D01*
X61937095Y-97112888D01*
X61913000Y-96991755D01*
X61913000Y-96868245D01*
X61937095Y-96747112D01*
X61984360Y-96633003D01*
X62052975Y-96530313D01*
X62140313Y-96442975D01*
X62243003Y-96374360D01*
X62300057Y-96350728D01*
X62357111Y-96327095D01*
X62417678Y-96315048D01*
X62478245Y-96303000D01*
X62601755Y-96303000D01*
X62662322Y-96315048D01*
G37*
G36*
X66273679Y-95881352D02*
G01*
X66410319Y-95937950D01*
X66533285Y-96020113D01*
X66637867Y-96124695D01*
X66720030Y-96247661D01*
X66776628Y-96384301D01*
X66805480Y-96529351D01*
X66805480Y-96677249D01*
X66776628Y-96822299D01*
X66720030Y-96958939D01*
X66637867Y-97081905D01*
X66533285Y-97186487D01*
X66410319Y-97268650D01*
X66273679Y-97325248D01*
X66128629Y-97354100D01*
X65980731Y-97354100D01*
X65835681Y-97325248D01*
X65699041Y-97268650D01*
X65576075Y-97186487D01*
X65471493Y-97081905D01*
X65389330Y-96958939D01*
X65332732Y-96822299D01*
X65303880Y-96677249D01*
X65303880Y-96529351D01*
X65332732Y-96384301D01*
X65389330Y-96247661D01*
X65471493Y-96124695D01*
X65576075Y-96020113D01*
X65699041Y-95937950D01*
X65835681Y-95881352D01*
X65980731Y-95852500D01*
X66128629Y-95852500D01*
X66273679Y-95881352D01*
G37*
G36*
X96443589Y-95417292D02*
G01*
X96605415Y-95484323D01*
X96751049Y-95581632D01*
X96874909Y-95705492D01*
X96972218Y-95851126D01*
X97039249Y-96012952D01*
X97073420Y-96184741D01*
X97073420Y-96359901D01*
X97039249Y-96531690D01*
X96972218Y-96693516D01*
X96874909Y-96839150D01*
X96751049Y-96963010D01*
X96605415Y-97060319D01*
X96443589Y-97127350D01*
X96271800Y-97161521D01*
X96096640Y-97161521D01*
X95924851Y-97127350D01*
X95763025Y-97060319D01*
X95617391Y-96963010D01*
X95493531Y-96839150D01*
X95396222Y-96693516D01*
X95329191Y-96531690D01*
X95295020Y-96359901D01*
X95295020Y-96184741D01*
X95329191Y-96012952D01*
X95396222Y-95851126D01*
X95493531Y-95705492D01*
X95617391Y-95581632D01*
X95763025Y-95484323D01*
X95924851Y-95417292D01*
X96096640Y-95383121D01*
X96271800Y-95383121D01*
X96443589Y-95417292D01*
G37*
G36*
X98983589Y-95417292D02*
G01*
X99145415Y-95484323D01*
X99291049Y-95581632D01*
X99414909Y-95705492D01*
X99512218Y-95851126D01*
X99579249Y-96012952D01*
X99613420Y-96184741D01*
X99613420Y-96359901D01*
X99579249Y-96531690D01*
X99512218Y-96693516D01*
X99414909Y-96839150D01*
X99291049Y-96963010D01*
X99145415Y-97060319D01*
X98983589Y-97127350D01*
X98811800Y-97161521D01*
X98636640Y-97161521D01*
X98464851Y-97127350D01*
X98303025Y-97060319D01*
X98157391Y-96963010D01*
X98033531Y-96839150D01*
X97936222Y-96693516D01*
X97869191Y-96531690D01*
X97835020Y-96359901D01*
X97835020Y-96184741D01*
X97869191Y-96012952D01*
X97936222Y-95851126D01*
X98033531Y-95705492D01*
X98157391Y-95581632D01*
X98303025Y-95484323D01*
X98464851Y-95417292D01*
X98636640Y-95383121D01*
X98811800Y-95383121D01*
X98983589Y-95417292D01*
G37*
G36*
X112313420Y-97161521D02*
G01*
X110535020Y-97161521D01*
X110535020Y-95383121D01*
X112313420Y-95383121D01*
X112313420Y-97161521D01*
G37*
G36*
X119303589Y-95417292D02*
G01*
X119465415Y-95484323D01*
X119611049Y-95581632D01*
X119734909Y-95705492D01*
X119832218Y-95851126D01*
X119899249Y-96012952D01*
X119933420Y-96184741D01*
X119933420Y-96359901D01*
X119899249Y-96531690D01*
X119832218Y-96693516D01*
X119734909Y-96839150D01*
X119611049Y-96963010D01*
X119465415Y-97060319D01*
X119303589Y-97127350D01*
X119131800Y-97161521D01*
X118956640Y-97161521D01*
X118784851Y-97127350D01*
X118623025Y-97060319D01*
X118477391Y-96963010D01*
X118353531Y-96839150D01*
X118256222Y-96693516D01*
X118189191Y-96531690D01*
X118155020Y-96359901D01*
X118155020Y-96184741D01*
X118189191Y-96012952D01*
X118256222Y-95851126D01*
X118353531Y-95705492D01*
X118477391Y-95581632D01*
X118623025Y-95484323D01*
X118784851Y-95417292D01*
X118956640Y-95383121D01*
X119131800Y-95383121D01*
X119303589Y-95417292D01*
G37*
G36*
X121843589Y-95417292D02*
G01*
X122005415Y-95484323D01*
X122151049Y-95581632D01*
X122274909Y-95705492D01*
X122372218Y-95851126D01*
X122439249Y-96012952D01*
X122473420Y-96184741D01*
X122473420Y-96359901D01*
X122439249Y-96531690D01*
X122372218Y-96693516D01*
X122274909Y-96839150D01*
X122151049Y-96963010D01*
X122005415Y-97060319D01*
X121843589Y-97127350D01*
X121671800Y-97161521D01*
X121496640Y-97161521D01*
X121324851Y-97127350D01*
X121163025Y-97060319D01*
X121017391Y-96963010D01*
X120893531Y-96839150D01*
X120796222Y-96693516D01*
X120729191Y-96531690D01*
X120695020Y-96359901D01*
X120695020Y-96184741D01*
X120729191Y-96012952D01*
X120796222Y-95851126D01*
X120893531Y-95705492D01*
X121017391Y-95581632D01*
X121163025Y-95484323D01*
X121324851Y-95417292D01*
X121496640Y-95383121D01*
X121671800Y-95383121D01*
X121843589Y-95417292D01*
G37*
G36*
X124383589Y-95417292D02*
G01*
X124545415Y-95484323D01*
X124691049Y-95581632D01*
X124814909Y-95705492D01*
X124912218Y-95851126D01*
X124979249Y-96012952D01*
X125013420Y-96184741D01*
X125013420Y-96359901D01*
X124979249Y-96531690D01*
X124912218Y-96693516D01*
X124814909Y-96839150D01*
X124691049Y-96963010D01*
X124545415Y-97060319D01*
X124383589Y-97127350D01*
X124211800Y-97161521D01*
X124036640Y-97161521D01*
X123864851Y-97127350D01*
X123703025Y-97060319D01*
X123557391Y-96963010D01*
X123433531Y-96839150D01*
X123336222Y-96693516D01*
X123269191Y-96531690D01*
X123235020Y-96359901D01*
X123235020Y-96184741D01*
X123269191Y-96012952D01*
X123336222Y-95851126D01*
X123433531Y-95705492D01*
X123557391Y-95581632D01*
X123703025Y-95484323D01*
X123864851Y-95417292D01*
X124036640Y-95383121D01*
X124211800Y-95383121D01*
X124383589Y-95417292D01*
G37*
G36*
X104063589Y-95417292D02*
G01*
X104225415Y-95484323D01*
X104371049Y-95581632D01*
X104494909Y-95705492D01*
X104592218Y-95851126D01*
X104659249Y-96012952D01*
X104693420Y-96184741D01*
X104693420Y-96359901D01*
X104659249Y-96531690D01*
X104592218Y-96693516D01*
X104494909Y-96839150D01*
X104371049Y-96963010D01*
X104225415Y-97060319D01*
X104063589Y-97127350D01*
X103891800Y-97161521D01*
X103716640Y-97161521D01*
X103544851Y-97127350D01*
X103383025Y-97060319D01*
X103237391Y-96963010D01*
X103113531Y-96839150D01*
X103016222Y-96693516D01*
X102949191Y-96531690D01*
X102915020Y-96359901D01*
X102915020Y-96184741D01*
X102949191Y-96012952D01*
X103016222Y-95851126D01*
X103113531Y-95705492D01*
X103237391Y-95581632D01*
X103383025Y-95484323D01*
X103544851Y-95417292D01*
X103716640Y-95383121D01*
X103891800Y-95383121D01*
X104063589Y-95417292D01*
G37*
G36*
X94533420Y-97161521D02*
G01*
X92755020Y-97161521D01*
X92755020Y-95383121D01*
X94533420Y-95383121D01*
X94533420Y-97161521D01*
G37*
G36*
X116763589Y-95417292D02*
G01*
X116925415Y-95484323D01*
X117071049Y-95581632D01*
X117194909Y-95705492D01*
X117292218Y-95851126D01*
X117359249Y-96012952D01*
X117393420Y-96184741D01*
X117393420Y-96359901D01*
X117359249Y-96531690D01*
X117292218Y-96693516D01*
X117194909Y-96839150D01*
X117071049Y-96963010D01*
X116925415Y-97060319D01*
X116763589Y-97127350D01*
X116591800Y-97161521D01*
X116416640Y-97161521D01*
X116244851Y-97127350D01*
X116083025Y-97060319D01*
X115937391Y-96963010D01*
X115813531Y-96839150D01*
X115716222Y-96693516D01*
X115649191Y-96531690D01*
X115615020Y-96359901D01*
X115615020Y-96184741D01*
X115649191Y-96012952D01*
X115716222Y-95851126D01*
X115813531Y-95705492D01*
X115937391Y-95581632D01*
X116083025Y-95484323D01*
X116244851Y-95417292D01*
X116416640Y-95383121D01*
X116591800Y-95383121D01*
X116763589Y-95417292D01*
G37*
G36*
X106603589Y-95417292D02*
G01*
X106765415Y-95484323D01*
X106911049Y-95581632D01*
X107034909Y-95705492D01*
X107132218Y-95851126D01*
X107199249Y-96012952D01*
X107233420Y-96184741D01*
X107233420Y-96359901D01*
X107199249Y-96531690D01*
X107132218Y-96693516D01*
X107034909Y-96839150D01*
X106911049Y-96963010D01*
X106765415Y-97060319D01*
X106603589Y-97127350D01*
X106431800Y-97161521D01*
X106256640Y-97161521D01*
X106084851Y-97127350D01*
X105923025Y-97060319D01*
X105777391Y-96963010D01*
X105653531Y-96839150D01*
X105556222Y-96693516D01*
X105489191Y-96531690D01*
X105455020Y-96359901D01*
X105455020Y-96184741D01*
X105489191Y-96012952D01*
X105556222Y-95851126D01*
X105653531Y-95705492D01*
X105777391Y-95581632D01*
X105923025Y-95484323D01*
X106084851Y-95417292D01*
X106256640Y-95383121D01*
X106431800Y-95383121D01*
X106603589Y-95417292D01*
G37*
G36*
X114223589Y-95417292D02*
G01*
X114385415Y-95484323D01*
X114531049Y-95581632D01*
X114654909Y-95705492D01*
X114752218Y-95851126D01*
X114819249Y-96012952D01*
X114853420Y-96184741D01*
X114853420Y-96359901D01*
X114819249Y-96531690D01*
X114752218Y-96693516D01*
X114654909Y-96839150D01*
X114531049Y-96963010D01*
X114385415Y-97060319D01*
X114223589Y-97127350D01*
X114051800Y-97161521D01*
X113876640Y-97161521D01*
X113704851Y-97127350D01*
X113543025Y-97060319D01*
X113397391Y-96963010D01*
X113273531Y-96839150D01*
X113176222Y-96693516D01*
X113109191Y-96531690D01*
X113075020Y-96359901D01*
X113075020Y-96184741D01*
X113109191Y-96012952D01*
X113176222Y-95851126D01*
X113273531Y-95705492D01*
X113397391Y-95581632D01*
X113543025Y-95484323D01*
X113704851Y-95417292D01*
X113876640Y-95383121D01*
X114051800Y-95383121D01*
X114223589Y-95417292D01*
G37*
G36*
X101523589Y-95417292D02*
G01*
X101685415Y-95484323D01*
X101831049Y-95581632D01*
X101954909Y-95705492D01*
X102052218Y-95851126D01*
X102119249Y-96012952D01*
X102153420Y-96184741D01*
X102153420Y-96359901D01*
X102119249Y-96531690D01*
X102052218Y-96693516D01*
X101954909Y-96839150D01*
X101831049Y-96963010D01*
X101685415Y-97060319D01*
X101523589Y-97127350D01*
X101351800Y-97161521D01*
X101176640Y-97161521D01*
X101004851Y-97127350D01*
X100843025Y-97060319D01*
X100697391Y-96963010D01*
X100573531Y-96839150D01*
X100476222Y-96693516D01*
X100409191Y-96531690D01*
X100375020Y-96359901D01*
X100375020Y-96184741D01*
X100409191Y-96012952D01*
X100476222Y-95851126D01*
X100573531Y-95705492D01*
X100697391Y-95581632D01*
X100843025Y-95484323D01*
X101004851Y-95417292D01*
X101176640Y-95383121D01*
X101351800Y-95383121D01*
X101523589Y-95417292D01*
G37*
G36*
X69364800Y-96069800D02*
G01*
X67739200Y-96069800D01*
X67739200Y-94952200D01*
X69364800Y-94952200D01*
X69364800Y-96069800D01*
G37*
G36*
X75700300Y-94788800D02*
G01*
X75585799Y-94788800D01*
X75561413Y-94791202D01*
X75537964Y-94798315D01*
X75516353Y-94809866D01*
X75497411Y-94825411D01*
X75481866Y-94844353D01*
X75470315Y-94865964D01*
X75463202Y-94889413D01*
X75460800Y-94913799D01*
X75460800Y-96069800D01*
X73835200Y-96069800D01*
X73835200Y-94952200D01*
X74923701Y-94952200D01*
X74948087Y-94949798D01*
X74971536Y-94942685D01*
X74993147Y-94931134D01*
X75012089Y-94915589D01*
X75027634Y-94896647D01*
X75039185Y-94875036D01*
X75046298Y-94851587D01*
X75048700Y-94827201D01*
X75048700Y-94187200D01*
X75700300Y-94187200D01*
X75700300Y-94788800D01*
G37*
G36*
X71731493Y-94616524D02*
G01*
X71813534Y-94650506D01*
X71887368Y-94699841D01*
X71950159Y-94762632D01*
X71999494Y-94836466D01*
X72033476Y-94918507D01*
X72050800Y-95005600D01*
X72050800Y-95094400D01*
X72033476Y-95181493D01*
X71999494Y-95263534D01*
X71950159Y-95337368D01*
X71887368Y-95400159D01*
X71813534Y-95449494D01*
X71731493Y-95483476D01*
X71644400Y-95500800D01*
X71555600Y-95500800D01*
X71468507Y-95483476D01*
X71386466Y-95449494D01*
X71312632Y-95400159D01*
X71249841Y-95337368D01*
X71200506Y-95263534D01*
X71166524Y-95181493D01*
X71149200Y-95094400D01*
X71149200Y-95005600D01*
X71166524Y-94918507D01*
X71200506Y-94836466D01*
X71249841Y-94762632D01*
X71312632Y-94699841D01*
X71386466Y-94650506D01*
X71468507Y-94616524D01*
X71555600Y-94599200D01*
X71644400Y-94599200D01*
X71731493Y-94616524D01*
G37*
G36*
X66802940Y-95342420D02*
G01*
X65301340Y-95342420D01*
X65301340Y-93840820D01*
X66802940Y-93840820D01*
X66802940Y-95342420D01*
G37*
G36*
X87365263Y-92459957D02*
G01*
X87605634Y-92559522D01*
X87821961Y-92704067D01*
X88005933Y-92888039D01*
X88150478Y-93104366D01*
X88150479Y-93104368D01*
X88250043Y-93344737D01*
X88300800Y-93599911D01*
X88300800Y-93860089D01*
X88250043Y-94115263D01*
X88173875Y-94299150D01*
X88150478Y-94355634D01*
X88005933Y-94571961D01*
X87821961Y-94755933D01*
X87605634Y-94900478D01*
X87605633Y-94900479D01*
X87605632Y-94900479D01*
X87365263Y-95000043D01*
X87110089Y-95050800D01*
X86849911Y-95050800D01*
X86594737Y-95000043D01*
X86354368Y-94900479D01*
X86354367Y-94900479D01*
X86354366Y-94900478D01*
X86138039Y-94755933D01*
X85954067Y-94571961D01*
X85809522Y-94355634D01*
X85786126Y-94299150D01*
X85709957Y-94115263D01*
X85659200Y-93860089D01*
X85659200Y-93599911D01*
X85709957Y-93344737D01*
X85809521Y-93104368D01*
X85809522Y-93104366D01*
X85954067Y-92888039D01*
X86138039Y-92704067D01*
X86354366Y-92559522D01*
X86594737Y-92459957D01*
X86849911Y-92409200D01*
X87110089Y-92409200D01*
X87365263Y-92459957D01*
G37*
G36*
X83865263Y-92459957D02*
G01*
X84105634Y-92559522D01*
X84321961Y-92704067D01*
X84505933Y-92888039D01*
X84650478Y-93104366D01*
X84650479Y-93104368D01*
X84750043Y-93344737D01*
X84800800Y-93599911D01*
X84800800Y-93860089D01*
X84750043Y-94115263D01*
X84673875Y-94299150D01*
X84650478Y-94355634D01*
X84505933Y-94571961D01*
X84321961Y-94755933D01*
X84105634Y-94900478D01*
X84105633Y-94900479D01*
X84105632Y-94900479D01*
X83865263Y-95000043D01*
X83610089Y-95050800D01*
X83349911Y-95050800D01*
X83094737Y-95000043D01*
X82854368Y-94900479D01*
X82854367Y-94900479D01*
X82854366Y-94900478D01*
X82638039Y-94755933D01*
X82454067Y-94571961D01*
X82309522Y-94355634D01*
X82286126Y-94299150D01*
X82209957Y-94115263D01*
X82159200Y-93860089D01*
X82159200Y-93599911D01*
X82209957Y-93344737D01*
X82309521Y-93104368D01*
X82309522Y-93104366D01*
X82454067Y-92888039D01*
X82638039Y-92704067D01*
X82854366Y-92559522D01*
X83094737Y-92459957D01*
X83349911Y-92409200D01*
X83610089Y-92409200D01*
X83865263Y-92459957D01*
G37*
G36*
X90865263Y-92459957D02*
G01*
X91105634Y-92559522D01*
X91321961Y-92704067D01*
X91505933Y-92888039D01*
X91650478Y-93104366D01*
X91650479Y-93104368D01*
X91750043Y-93344737D01*
X91800800Y-93599911D01*
X91800800Y-93860089D01*
X91750043Y-94115263D01*
X91673875Y-94299150D01*
X91650478Y-94355634D01*
X91505933Y-94571961D01*
X91321961Y-94755933D01*
X91105634Y-94900478D01*
X91105633Y-94900479D01*
X91105632Y-94900479D01*
X90865263Y-95000043D01*
X90610089Y-95050800D01*
X90349911Y-95050800D01*
X90094737Y-95000043D01*
X89854368Y-94900479D01*
X89854367Y-94900479D01*
X89854366Y-94900478D01*
X89638039Y-94755933D01*
X89454067Y-94571961D01*
X89309522Y-94355634D01*
X89286126Y-94299150D01*
X89209957Y-94115263D01*
X89159200Y-93860089D01*
X89159200Y-93599911D01*
X89209957Y-93344737D01*
X89309521Y-93104368D01*
X89309522Y-93104366D01*
X89454067Y-92888039D01*
X89638039Y-92704067D01*
X89854366Y-92559522D01*
X90094737Y-92459957D01*
X90349911Y-92409200D01*
X90610089Y-92409200D01*
X90865263Y-92459957D01*
G37*
G36*
X106603589Y-92877292D02*
G01*
X106765415Y-92944323D01*
X106911049Y-93041632D01*
X107034909Y-93165492D01*
X107132218Y-93311126D01*
X107199249Y-93472952D01*
X107233420Y-93644741D01*
X107233420Y-93819901D01*
X107199249Y-93991690D01*
X107132218Y-94153516D01*
X107034909Y-94299150D01*
X106911049Y-94423010D01*
X106765415Y-94520319D01*
X106603589Y-94587350D01*
X106431800Y-94621521D01*
X106256640Y-94621521D01*
X106084851Y-94587350D01*
X105923025Y-94520319D01*
X105777391Y-94423010D01*
X105653531Y-94299150D01*
X105556222Y-94153516D01*
X105489191Y-93991690D01*
X105455020Y-93819901D01*
X105455020Y-93644741D01*
X105489191Y-93472952D01*
X105556222Y-93311126D01*
X105653531Y-93165492D01*
X105777391Y-93041632D01*
X105923025Y-92944323D01*
X106084851Y-92877292D01*
X106256640Y-92843121D01*
X106431800Y-92843121D01*
X106603589Y-92877292D01*
G37*
G36*
X94533420Y-94621521D02*
G01*
X92755020Y-94621521D01*
X92755020Y-92843121D01*
X94533420Y-92843121D01*
X94533420Y-94621521D01*
G37*
G36*
X104063589Y-92877292D02*
G01*
X104225415Y-92944323D01*
X104371049Y-93041632D01*
X104494909Y-93165492D01*
X104592218Y-93311126D01*
X104659249Y-93472952D01*
X104693420Y-93644741D01*
X104693420Y-93819901D01*
X104659249Y-93991690D01*
X104592218Y-94153516D01*
X104494909Y-94299150D01*
X104371049Y-94423010D01*
X104225415Y-94520319D01*
X104063589Y-94587350D01*
X103891800Y-94621521D01*
X103716640Y-94621521D01*
X103544851Y-94587350D01*
X103383025Y-94520319D01*
X103237391Y-94423010D01*
X103113531Y-94299150D01*
X103016222Y-94153516D01*
X102949191Y-93991690D01*
X102915020Y-93819901D01*
X102915020Y-93644741D01*
X102949191Y-93472952D01*
X103016222Y-93311126D01*
X103113531Y-93165492D01*
X103237391Y-93041632D01*
X103383025Y-92944323D01*
X103544851Y-92877292D01*
X103716640Y-92843121D01*
X103891800Y-92843121D01*
X104063589Y-92877292D01*
G37*
G36*
X101523589Y-92877292D02*
G01*
X101685415Y-92944323D01*
X101831049Y-93041632D01*
X101954909Y-93165492D01*
X102052218Y-93311126D01*
X102119249Y-93472952D01*
X102153420Y-93644741D01*
X102153420Y-93819901D01*
X102119249Y-93991690D01*
X102052218Y-94153516D01*
X101954909Y-94299150D01*
X101831049Y-94423010D01*
X101685415Y-94520319D01*
X101523589Y-94587350D01*
X101351800Y-94621521D01*
X101176640Y-94621521D01*
X101004851Y-94587350D01*
X100843025Y-94520319D01*
X100697391Y-94423010D01*
X100573531Y-94299150D01*
X100476222Y-94153516D01*
X100409191Y-93991690D01*
X100375020Y-93819901D01*
X100375020Y-93644741D01*
X100409191Y-93472952D01*
X100476222Y-93311126D01*
X100573531Y-93165492D01*
X100697391Y-93041632D01*
X100843025Y-92944323D01*
X101004851Y-92877292D01*
X101176640Y-92843121D01*
X101351800Y-92843121D01*
X101523589Y-92877292D01*
G37*
G36*
X98983589Y-92877292D02*
G01*
X99145415Y-92944323D01*
X99291049Y-93041632D01*
X99414909Y-93165492D01*
X99512218Y-93311126D01*
X99579249Y-93472952D01*
X99613420Y-93644741D01*
X99613420Y-93819901D01*
X99579249Y-93991690D01*
X99512218Y-94153516D01*
X99414909Y-94299150D01*
X99291049Y-94423010D01*
X99145415Y-94520319D01*
X98983589Y-94587350D01*
X98811800Y-94621521D01*
X98636640Y-94621521D01*
X98464851Y-94587350D01*
X98303025Y-94520319D01*
X98157391Y-94423010D01*
X98033531Y-94299150D01*
X97936222Y-94153516D01*
X97869191Y-93991690D01*
X97835020Y-93819901D01*
X97835020Y-93644741D01*
X97869191Y-93472952D01*
X97936222Y-93311126D01*
X98033531Y-93165492D01*
X98157391Y-93041632D01*
X98303025Y-92944323D01*
X98464851Y-92877292D01*
X98636640Y-92843121D01*
X98811800Y-92843121D01*
X98983589Y-92877292D01*
G37*
G36*
X96443589Y-92877292D02*
G01*
X96605415Y-92944323D01*
X96751049Y-93041632D01*
X96874909Y-93165492D01*
X96972218Y-93311126D01*
X97039249Y-93472952D01*
X97073420Y-93644741D01*
X97073420Y-93819901D01*
X97039249Y-93991690D01*
X96972218Y-94153516D01*
X96874909Y-94299150D01*
X96751049Y-94423010D01*
X96605415Y-94520319D01*
X96443589Y-94587350D01*
X96271800Y-94621521D01*
X96096640Y-94621521D01*
X95924851Y-94587350D01*
X95763025Y-94520319D01*
X95617391Y-94423010D01*
X95493531Y-94299150D01*
X95396222Y-94153516D01*
X95329191Y-93991690D01*
X95295020Y-93819901D01*
X95295020Y-93644741D01*
X95329191Y-93472952D01*
X95396222Y-93311126D01*
X95493531Y-93165492D01*
X95617391Y-93041632D01*
X95763025Y-92944323D01*
X95924851Y-92877292D01*
X96096640Y-92843121D01*
X96271800Y-92843121D01*
X96443589Y-92877292D01*
G37*
G36*
X121843589Y-92877292D02*
G01*
X122005415Y-92944323D01*
X122151049Y-93041632D01*
X122274909Y-93165492D01*
X122372218Y-93311126D01*
X122439249Y-93472952D01*
X122473420Y-93644741D01*
X122473420Y-93819901D01*
X122439249Y-93991690D01*
X122372218Y-94153516D01*
X122274909Y-94299150D01*
X122151049Y-94423010D01*
X122005415Y-94520319D01*
X121843589Y-94587350D01*
X121671800Y-94621521D01*
X121496640Y-94621521D01*
X121324851Y-94587350D01*
X121163025Y-94520319D01*
X121017391Y-94423010D01*
X120893531Y-94299150D01*
X120796222Y-94153516D01*
X120729191Y-93991690D01*
X120695020Y-93819901D01*
X120695020Y-93644741D01*
X120729191Y-93472952D01*
X120796222Y-93311126D01*
X120893531Y-93165492D01*
X121017391Y-93041632D01*
X121163025Y-92944323D01*
X121324851Y-92877292D01*
X121496640Y-92843121D01*
X121671800Y-92843121D01*
X121843589Y-92877292D01*
G37*
G36*
X124383589Y-92877292D02*
G01*
X124545415Y-92944323D01*
X124691049Y-93041632D01*
X124814909Y-93165492D01*
X124912218Y-93311126D01*
X124979249Y-93472952D01*
X125013420Y-93644741D01*
X125013420Y-93819901D01*
X124979249Y-93991690D01*
X124912218Y-94153516D01*
X124814909Y-94299150D01*
X124691049Y-94423010D01*
X124545415Y-94520319D01*
X124383589Y-94587350D01*
X124211800Y-94621521D01*
X124036640Y-94621521D01*
X123864851Y-94587350D01*
X123703025Y-94520319D01*
X123557391Y-94423010D01*
X123433531Y-94299150D01*
X123336222Y-94153516D01*
X123269191Y-93991690D01*
X123235020Y-93819901D01*
X123235020Y-93644741D01*
X123269191Y-93472952D01*
X123336222Y-93311126D01*
X123433531Y-93165492D01*
X123557391Y-93041632D01*
X123703025Y-92944323D01*
X123864851Y-92877292D01*
X124036640Y-92843121D01*
X124211800Y-92843121D01*
X124383589Y-92877292D01*
G37*
G36*
X114223589Y-92877292D02*
G01*
X114385415Y-92944323D01*
X114531049Y-93041632D01*
X114654909Y-93165492D01*
X114752218Y-93311126D01*
X114819249Y-93472952D01*
X114853420Y-93644741D01*
X114853420Y-93819901D01*
X114819249Y-93991690D01*
X114752218Y-94153516D01*
X114654909Y-94299150D01*
X114531049Y-94423010D01*
X114385415Y-94520319D01*
X114223589Y-94587350D01*
X114051800Y-94621521D01*
X113876640Y-94621521D01*
X113704851Y-94587350D01*
X113543025Y-94520319D01*
X113397391Y-94423010D01*
X113273531Y-94299150D01*
X113176222Y-94153516D01*
X113109191Y-93991690D01*
X113075020Y-93819901D01*
X113075020Y-93644741D01*
X113109191Y-93472952D01*
X113176222Y-93311126D01*
X113273531Y-93165492D01*
X113397391Y-93041632D01*
X113543025Y-92944323D01*
X113704851Y-92877292D01*
X113876640Y-92843121D01*
X114051800Y-92843121D01*
X114223589Y-92877292D01*
G37*
G36*
X116763589Y-92877292D02*
G01*
X116925415Y-92944323D01*
X117071049Y-93041632D01*
X117194909Y-93165492D01*
X117292218Y-93311126D01*
X117359249Y-93472952D01*
X117393420Y-93644741D01*
X117393420Y-93819901D01*
X117359249Y-93991690D01*
X117292218Y-94153516D01*
X117194909Y-94299150D01*
X117071049Y-94423010D01*
X116925415Y-94520319D01*
X116763589Y-94587350D01*
X116591800Y-94621521D01*
X116416640Y-94621521D01*
X116244851Y-94587350D01*
X116083025Y-94520319D01*
X115937391Y-94423010D01*
X115813531Y-94299150D01*
X115716222Y-94153516D01*
X115649191Y-93991690D01*
X115615020Y-93819901D01*
X115615020Y-93644741D01*
X115649191Y-93472952D01*
X115716222Y-93311126D01*
X115813531Y-93165492D01*
X115937391Y-93041632D01*
X116083025Y-92944323D01*
X116244851Y-92877292D01*
X116416640Y-92843121D01*
X116591800Y-92843121D01*
X116763589Y-92877292D01*
G37*
G36*
X112313420Y-94621521D02*
G01*
X110535020Y-94621521D01*
X110535020Y-92843121D01*
X112313420Y-92843121D01*
X112313420Y-94621521D01*
G37*
G36*
X119303589Y-92877292D02*
G01*
X119465415Y-92944323D01*
X119611049Y-93041632D01*
X119734909Y-93165492D01*
X119832218Y-93311126D01*
X119899249Y-93472952D01*
X119933420Y-93644741D01*
X119933420Y-93819901D01*
X119899249Y-93991690D01*
X119832218Y-94153516D01*
X119734909Y-94299150D01*
X119611049Y-94423010D01*
X119465415Y-94520319D01*
X119303589Y-94587350D01*
X119131800Y-94621521D01*
X118956640Y-94621521D01*
X118784851Y-94587350D01*
X118623025Y-94520319D01*
X118477391Y-94423010D01*
X118353531Y-94299150D01*
X118256222Y-94153516D01*
X118189191Y-93991690D01*
X118155020Y-93819901D01*
X118155020Y-93644741D01*
X118189191Y-93472952D01*
X118256222Y-93311126D01*
X118353531Y-93165492D01*
X118477391Y-93041632D01*
X118623025Y-92944323D01*
X118784851Y-92877292D01*
X118956640Y-92843121D01*
X119131800Y-92843121D01*
X119303589Y-92877292D01*
G37*
G36*
X74682300Y-94049800D02*
G01*
X73780700Y-94049800D01*
X73780700Y-93148200D01*
X74682300Y-93148200D01*
X74682300Y-94049800D01*
G37*
G36*
X73158300Y-94049800D02*
G01*
X72256700Y-94049800D01*
X72256700Y-93148200D01*
X73158300Y-93148200D01*
X73158300Y-94049800D01*
G37*
G36*
X75700300Y-93772800D02*
G01*
X75048700Y-93772800D01*
X75048700Y-93171200D01*
X75700300Y-93171200D01*
X75700300Y-93772800D01*
G37*
G36*
X71243770Y-91400030D02*
G01*
X71302964Y-91405860D01*
X71454858Y-91451937D01*
X71454861Y-91451938D01*
X71594843Y-91526760D01*
X71717543Y-91627457D01*
X71818240Y-91750157D01*
X71893062Y-91890139D01*
X71893063Y-91890142D01*
X71939140Y-92042036D01*
X71954698Y-92200000D01*
X71939140Y-92357964D01*
X71908200Y-92459957D01*
X71893062Y-92509861D01*
X71818240Y-92649843D01*
X71717543Y-92772543D01*
X71594843Y-92873240D01*
X71454861Y-92948062D01*
X71454858Y-92948063D01*
X71302964Y-92994140D01*
X71243770Y-92999970D01*
X71184579Y-93005800D01*
X68615421Y-93005800D01*
X68556230Y-92999970D01*
X68497036Y-92994140D01*
X68345142Y-92948063D01*
X68345139Y-92948062D01*
X68205157Y-92873240D01*
X68082457Y-92772543D01*
X67981760Y-92649843D01*
X67906938Y-92509861D01*
X67891800Y-92459957D01*
X67860860Y-92357964D01*
X67845302Y-92200000D01*
X67860860Y-92042036D01*
X67906937Y-91890142D01*
X67906938Y-91890139D01*
X67981760Y-91750157D01*
X68082457Y-91627457D01*
X68205157Y-91526760D01*
X68345139Y-91451938D01*
X68345142Y-91451937D01*
X68497036Y-91405860D01*
X68556230Y-91400030D01*
X68615421Y-91394200D01*
X71184579Y-91394200D01*
X71243770Y-91400030D01*
G37*
G36*
X127160382Y-89556689D02*
G01*
X127469944Y-89684914D01*
X127469945Y-89684915D01*
X127748544Y-89871068D01*
X127985473Y-90107997D01*
X128109857Y-90294151D01*
X128171627Y-90386597D01*
X128299852Y-90696159D01*
X128365220Y-91024786D01*
X128365220Y-91359856D01*
X128299852Y-91688483D01*
X128171627Y-91998045D01*
X128171626Y-91998046D01*
X127985473Y-92276645D01*
X127748544Y-92513574D01*
X127562390Y-92637958D01*
X127469944Y-92699728D01*
X127160382Y-92827953D01*
X126831755Y-92893321D01*
X126496685Y-92893321D01*
X126168058Y-92827953D01*
X125858496Y-92699728D01*
X125766050Y-92637958D01*
X125579896Y-92513574D01*
X125342967Y-92276645D01*
X125156814Y-91998046D01*
X125156813Y-91998045D01*
X125028588Y-91688483D01*
X124963220Y-91359856D01*
X124963220Y-91024786D01*
X125028588Y-90696159D01*
X125156813Y-90386597D01*
X125218583Y-90294151D01*
X125342967Y-90107997D01*
X125579896Y-89871068D01*
X125858495Y-89684915D01*
X125858496Y-89684914D01*
X126168058Y-89556689D01*
X126496685Y-89491321D01*
X126831755Y-89491321D01*
X127160382Y-89556689D01*
G37*
G36*
X75890800Y-92170800D02*
G01*
X73789200Y-92170800D01*
X73789200Y-90369200D01*
X75890800Y-90369200D01*
X75890800Y-92170800D01*
G37*
G36*
X80890800Y-92170800D02*
G01*
X78789200Y-92170800D01*
X78789200Y-90369200D01*
X80890800Y-90369200D01*
X80890800Y-92170800D01*
G37*
G36*
X73357963Y-85710860D02*
G01*
X73509857Y-85756937D01*
X73509860Y-85756938D01*
X73649842Y-85831760D01*
X73649844Y-85831761D01*
X73649843Y-85831761D01*
X73772543Y-85932457D01*
X73855183Y-86033154D01*
X73873240Y-86055157D01*
X73948062Y-86195139D01*
X73948062Y-86195140D01*
X73948063Y-86195142D01*
X73994140Y-86347036D01*
X74005800Y-86465423D01*
X74005800Y-89034577D01*
X73994140Y-89152964D01*
X73948063Y-89304858D01*
X73948062Y-89304861D01*
X73873240Y-89444843D01*
X73772543Y-89567543D01*
X73649843Y-89668240D01*
X73509861Y-89743062D01*
X73509858Y-89743063D01*
X73357964Y-89789140D01*
X73200000Y-89804698D01*
X73042037Y-89789140D01*
X72890143Y-89743063D01*
X72890140Y-89743062D01*
X72750158Y-89668240D01*
X72627458Y-89567543D01*
X72526761Y-89444843D01*
X72451939Y-89304861D01*
X72451938Y-89304858D01*
X72405861Y-89152964D01*
X72394201Y-89034577D01*
X72394200Y-86465424D01*
X72405860Y-86347037D01*
X72451937Y-86195143D01*
X72451938Y-86195140D01*
X72526760Y-86055158D01*
X72542072Y-86036500D01*
X72627457Y-85932457D01*
X72750156Y-85831761D01*
X72750155Y-85831761D01*
X72750157Y-85831760D01*
X72890139Y-85756938D01*
X72890142Y-85756937D01*
X73042036Y-85710860D01*
X73200000Y-85695302D01*
X73357963Y-85710860D01*
G37*
G36*
X66857963Y-85710860D02*
G01*
X67009857Y-85756937D01*
X67009860Y-85756938D01*
X67149842Y-85831760D01*
X67149844Y-85831761D01*
X67149843Y-85831761D01*
X67272543Y-85932457D01*
X67355183Y-86033154D01*
X67373240Y-86055157D01*
X67448062Y-86195139D01*
X67448062Y-86195140D01*
X67448063Y-86195142D01*
X67494140Y-86347036D01*
X67505800Y-86465423D01*
X67505800Y-89034577D01*
X67494140Y-89152964D01*
X67448063Y-89304858D01*
X67448062Y-89304861D01*
X67373240Y-89444843D01*
X67272543Y-89567543D01*
X67149843Y-89668240D01*
X67009861Y-89743062D01*
X67009858Y-89743063D01*
X66857964Y-89789140D01*
X66700000Y-89804698D01*
X66542037Y-89789140D01*
X66390143Y-89743063D01*
X66390140Y-89743062D01*
X66250158Y-89668240D01*
X66127458Y-89567543D01*
X66026761Y-89444843D01*
X65951939Y-89304861D01*
X65951938Y-89304858D01*
X65905861Y-89152964D01*
X65894201Y-89034577D01*
X65894200Y-86465424D01*
X65905860Y-86347037D01*
X65951937Y-86195143D01*
X65951938Y-86195140D01*
X66026760Y-86055158D01*
X66042072Y-86036500D01*
X66127457Y-85932457D01*
X66250156Y-85831761D01*
X66250155Y-85831761D01*
X66250157Y-85831760D01*
X66390139Y-85756938D01*
X66390142Y-85756937D01*
X66542036Y-85710860D01*
X66700000Y-85695302D01*
X66857963Y-85710860D01*
G37*
G36*
X90575800Y-89480800D02*
G01*
X89874200Y-89480800D01*
X89874200Y-87179200D01*
X90575800Y-87179200D01*
X90575800Y-89480800D01*
G37*
G36*
X91845800Y-89480800D02*
G01*
X91144200Y-89480800D01*
X91144200Y-87179200D01*
X91845800Y-87179200D01*
X91845800Y-89480800D01*
G37*
G36*
X89305800Y-89480800D02*
G01*
X88604200Y-89480800D01*
X88604200Y-87179200D01*
X89305800Y-87179200D01*
X89305800Y-89480800D01*
G37*
G36*
X88035800Y-89480800D02*
G01*
X87334200Y-89480800D01*
X87334200Y-87179200D01*
X88035800Y-87179200D01*
X88035800Y-89480800D01*
G37*
G36*
X78760800Y-88840800D02*
G01*
X77759200Y-88840800D01*
X77759200Y-87939200D01*
X78760800Y-87939200D01*
X78760800Y-88840800D01*
G37*
G36*
X80360800Y-88840800D02*
G01*
X79359200Y-88840800D01*
X79359200Y-87939200D01*
X80360800Y-87939200D01*
X80360800Y-88840800D01*
G37*
G36*
X84496529Y-86232398D02*
G01*
X84671079Y-86285348D01*
X84831947Y-86371333D01*
X84972949Y-86487051D01*
X85088667Y-86628053D01*
X85174652Y-86788921D01*
X85227602Y-86963471D01*
X85245480Y-87145000D01*
X85227602Y-87326529D01*
X85174652Y-87501079D01*
X85088667Y-87661947D01*
X84972949Y-87802949D01*
X84831947Y-87918667D01*
X84671079Y-88004652D01*
X84496529Y-88057602D01*
X84360490Y-88071000D01*
X81519510Y-88071000D01*
X81383471Y-88057602D01*
X81208921Y-88004652D01*
X81048053Y-87918667D01*
X80907051Y-87802949D01*
X80791333Y-87661947D01*
X80705348Y-87501079D01*
X80652398Y-87326529D01*
X80634520Y-87145000D01*
X80652398Y-86963471D01*
X80705348Y-86788921D01*
X80791333Y-86628053D01*
X80907051Y-86487051D01*
X81048053Y-86371333D01*
X81208921Y-86285348D01*
X81383471Y-86232398D01*
X81519510Y-86219000D01*
X84360490Y-86219000D01*
X84496529Y-86232398D01*
G37*
G36*
X78430800Y-87190800D02*
G01*
X77129200Y-87190800D01*
X77129200Y-85889200D01*
X78430800Y-85889200D01*
X78430800Y-87190800D01*
G37*
G36*
X127571000Y-87031000D02*
G01*
X125769000Y-87031000D01*
X125769000Y-85229000D01*
X127571000Y-85229000D01*
X127571000Y-87031000D01*
G37*
G36*
X124243512Y-85233927D02*
G01*
X124392812Y-85263624D01*
X124556784Y-85331544D01*
X124704354Y-85430147D01*
X124829853Y-85555646D01*
X124928456Y-85703216D01*
X124996376Y-85867188D01*
X125026073Y-86016488D01*
X125031000Y-86041258D01*
X125031000Y-86218742D01*
X125028284Y-86232398D01*
X124996376Y-86392812D01*
X124928456Y-86556784D01*
X124829853Y-86704354D01*
X124704354Y-86829853D01*
X124556784Y-86928456D01*
X124392812Y-86996376D01*
X124243512Y-87026073D01*
X124218742Y-87031000D01*
X124041258Y-87031000D01*
X124016488Y-87026073D01*
X123867188Y-86996376D01*
X123703216Y-86928456D01*
X123555646Y-86829853D01*
X123430147Y-86704354D01*
X123331544Y-86556784D01*
X123263624Y-86392812D01*
X123231716Y-86232398D01*
X123229000Y-86218742D01*
X123229000Y-86041258D01*
X123233927Y-86016488D01*
X123263624Y-85867188D01*
X123331544Y-85703216D01*
X123430147Y-85555646D01*
X123555646Y-85430147D01*
X123703216Y-85331544D01*
X123867188Y-85263624D01*
X124016488Y-85233927D01*
X124041258Y-85229000D01*
X124218742Y-85229000D01*
X124243512Y-85233927D01*
G37*
G36*
X113882800Y-86720800D02*
G01*
X108955200Y-86720800D01*
X108955200Y-85519200D01*
X113882800Y-85519200D01*
X113882800Y-86720800D01*
G37*
G36*
X104484800Y-86720800D02*
G01*
X99557200Y-86720800D01*
X99557200Y-85519200D01*
X104484800Y-85519200D01*
X104484800Y-86720800D01*
G37*
G36*
X115132800Y-86475800D02*
G01*
X114531200Y-86475800D01*
X114531200Y-85824200D01*
X115132800Y-85824200D01*
X115132800Y-86475800D01*
G37*
G36*
X116148800Y-86475800D02*
G01*
X115547200Y-86475800D01*
X115547200Y-85824200D01*
X116148800Y-85824200D01*
X116148800Y-86475800D01*
G37*
G36*
X98788800Y-86425800D02*
G01*
X98187200Y-86425800D01*
X98187200Y-85774200D01*
X98788800Y-85774200D01*
X98788800Y-86425800D01*
G37*
G36*
X97772800Y-86425800D02*
G01*
X97171200Y-86425800D01*
X97171200Y-85774200D01*
X97772800Y-85774200D01*
X97772800Y-86425800D01*
G37*
G36*
X95435800Y-86368800D02*
G01*
X94784200Y-86368800D01*
X94784200Y-85767200D01*
X95435800Y-85767200D01*
X95435800Y-86368800D01*
G37*
G36*
X96565800Y-86368800D02*
G01*
X95914200Y-86368800D01*
X95914200Y-85767200D01*
X96565800Y-85767200D01*
X96565800Y-86368800D01*
G37*
G36*
X96565800Y-85352800D02*
G01*
X95914200Y-85352800D01*
X95914200Y-84751200D01*
X96565800Y-84751200D01*
X96565800Y-85352800D01*
G37*
G36*
X95435800Y-85352800D02*
G01*
X94784200Y-85352800D01*
X94784200Y-84751200D01*
X95435800Y-84751200D01*
X95435800Y-85352800D01*
G37*
G36*
X77969830Y-83914209D02*
G01*
X78088271Y-83963269D01*
X78194858Y-84034488D01*
X78285512Y-84125142D01*
X78356731Y-84231729D01*
X78405791Y-84350170D01*
X78430800Y-84475900D01*
X78430800Y-84604100D01*
X78405791Y-84729830D01*
X78356731Y-84848271D01*
X78285512Y-84954858D01*
X78194858Y-85045512D01*
X78088271Y-85116731D01*
X77969830Y-85165791D01*
X77844100Y-85190800D01*
X77715900Y-85190800D01*
X77590170Y-85165791D01*
X77471729Y-85116731D01*
X77365142Y-85045512D01*
X77274488Y-84954858D01*
X77203269Y-84848271D01*
X77154209Y-84729830D01*
X77129200Y-84604100D01*
X77129200Y-84475900D01*
X77154209Y-84350170D01*
X77203269Y-84231729D01*
X77274488Y-84125142D01*
X77365142Y-84034488D01*
X77471729Y-83963269D01*
X77590170Y-83914209D01*
X77715900Y-83889200D01*
X77844100Y-83889200D01*
X77969830Y-83914209D01*
G37*
G36*
X84496529Y-82982398D02*
G01*
X84671079Y-83035348D01*
X84831947Y-83121333D01*
X84972949Y-83237051D01*
X85088667Y-83378053D01*
X85174652Y-83538921D01*
X85227602Y-83713471D01*
X85245480Y-83895000D01*
X85227602Y-84076529D01*
X85174652Y-84251079D01*
X85088667Y-84411947D01*
X84972949Y-84552949D01*
X84831947Y-84668667D01*
X84671079Y-84754652D01*
X84496529Y-84807602D01*
X84360490Y-84821000D01*
X81519510Y-84821000D01*
X81383471Y-84807602D01*
X81208921Y-84754652D01*
X81048053Y-84668667D01*
X80907051Y-84552949D01*
X80791333Y-84411947D01*
X80705348Y-84251079D01*
X80652398Y-84076529D01*
X80634520Y-83895000D01*
X80652398Y-83713471D01*
X80705348Y-83538921D01*
X80791333Y-83378053D01*
X80907051Y-83237051D01*
X81048053Y-83121333D01*
X81208921Y-83035348D01*
X81383471Y-82982398D01*
X81519510Y-82969000D01*
X84360490Y-82969000D01*
X84496529Y-82982398D01*
G37*
G36*
X126783512Y-82693927D02*
G01*
X126932812Y-82723624D01*
X127096784Y-82791544D01*
X127244354Y-82890147D01*
X127369853Y-83015646D01*
X127468456Y-83163216D01*
X127536376Y-83327188D01*
X127571000Y-83501259D01*
X127571000Y-83678741D01*
X127536376Y-83852812D01*
X127468456Y-84016784D01*
X127369853Y-84164354D01*
X127244354Y-84289853D01*
X127096784Y-84388456D01*
X126932812Y-84456376D01*
X126783512Y-84486073D01*
X126758742Y-84491000D01*
X126581258Y-84491000D01*
X126556488Y-84486073D01*
X126407188Y-84456376D01*
X126243216Y-84388456D01*
X126095646Y-84289853D01*
X125970147Y-84164354D01*
X125871544Y-84016784D01*
X125803624Y-83852812D01*
X125769000Y-83678741D01*
X125769000Y-83501259D01*
X125803624Y-83327188D01*
X125871544Y-83163216D01*
X125970147Y-83015646D01*
X126095646Y-82890147D01*
X126243216Y-82791544D01*
X126407188Y-82723624D01*
X126556488Y-82693927D01*
X126581258Y-82689000D01*
X126758742Y-82689000D01*
X126783512Y-82693927D01*
G37*
G36*
X124243512Y-82693927D02*
G01*
X124392812Y-82723624D01*
X124556784Y-82791544D01*
X124704354Y-82890147D01*
X124829853Y-83015646D01*
X124928456Y-83163216D01*
X124996376Y-83327188D01*
X125031000Y-83501259D01*
X125031000Y-83678741D01*
X124996376Y-83852812D01*
X124928456Y-84016784D01*
X124829853Y-84164354D01*
X124704354Y-84289853D01*
X124556784Y-84388456D01*
X124392812Y-84456376D01*
X124243512Y-84486073D01*
X124218742Y-84491000D01*
X124041258Y-84491000D01*
X124016488Y-84486073D01*
X123867188Y-84456376D01*
X123703216Y-84388456D01*
X123555646Y-84289853D01*
X123430147Y-84164354D01*
X123331544Y-84016784D01*
X123263624Y-83852812D01*
X123229000Y-83678741D01*
X123229000Y-83501259D01*
X123263624Y-83327188D01*
X123331544Y-83163216D01*
X123430147Y-83015646D01*
X123555646Y-82890147D01*
X123703216Y-82791544D01*
X123867188Y-82723624D01*
X124016488Y-82693927D01*
X124041258Y-82689000D01*
X124218742Y-82689000D01*
X124243512Y-82693927D01*
G37*
G36*
X88035800Y-84280800D02*
G01*
X87334200Y-84280800D01*
X87334200Y-81979200D01*
X88035800Y-81979200D01*
X88035800Y-84280800D01*
G37*
G36*
X89305800Y-84280800D02*
G01*
X88604200Y-84280800D01*
X88604200Y-81979200D01*
X89305800Y-81979200D01*
X89305800Y-84280800D01*
G37*
G36*
X90575800Y-84280800D02*
G01*
X89874200Y-84280800D01*
X89874200Y-81979200D01*
X90575800Y-81979200D01*
X90575800Y-84280800D01*
G37*
G36*
X91845800Y-84280800D02*
G01*
X91144200Y-84280800D01*
X91144200Y-81979200D01*
X91845800Y-81979200D01*
X91845800Y-84280800D01*
G37*
G36*
X110412800Y-83195800D02*
G01*
X109811200Y-83195800D01*
X109811200Y-82544200D01*
X110412800Y-82544200D01*
X110412800Y-83195800D01*
G37*
G36*
X111428800Y-83195800D02*
G01*
X110827200Y-83195800D01*
X110827200Y-82544200D01*
X111428800Y-82544200D01*
X111428800Y-83195800D01*
G37*
G36*
X103159800Y-83099800D02*
G01*
X101280200Y-83099800D01*
X101280200Y-81474200D01*
X103159800Y-81474200D01*
X103159800Y-83099800D01*
G37*
G36*
X99142800Y-82635800D02*
G01*
X98541200Y-82635800D01*
X98541200Y-81984200D01*
X99142800Y-81984200D01*
X99142800Y-82635800D01*
G37*
G36*
X100158800Y-82635800D02*
G01*
X99557200Y-82635800D01*
X99557200Y-81984200D01*
X100158800Y-81984200D01*
X100158800Y-82635800D01*
G37*
G36*
X81250800Y-82380800D02*
G01*
X80249200Y-82380800D01*
X80249200Y-81579200D01*
X81250800Y-81579200D01*
X81250800Y-82380800D01*
G37*
G36*
X71940800Y-82140800D02*
G01*
X69839200Y-82140800D01*
X69839200Y-80339200D01*
X71940800Y-80339200D01*
X71940800Y-82140800D01*
G37*
G36*
X76940800Y-82140800D02*
G01*
X74839200Y-82140800D01*
X74839200Y-80339200D01*
X76940800Y-80339200D01*
X76940800Y-82140800D01*
G37*
G36*
X126783512Y-80153927D02*
G01*
X126932812Y-80183624D01*
X127096784Y-80251544D01*
X127244354Y-80350147D01*
X127369853Y-80475646D01*
X127468456Y-80623216D01*
X127536376Y-80787188D01*
X127571000Y-80961259D01*
X127571000Y-81138741D01*
X127536376Y-81312812D01*
X127468456Y-81476784D01*
X127369853Y-81624354D01*
X127244354Y-81749853D01*
X127096784Y-81848456D01*
X126932812Y-81916376D01*
X126783512Y-81946073D01*
X126758742Y-81951000D01*
X126581258Y-81951000D01*
X126556488Y-81946073D01*
X126407188Y-81916376D01*
X126243216Y-81848456D01*
X126095646Y-81749853D01*
X125970147Y-81624354D01*
X125871544Y-81476784D01*
X125803624Y-81312812D01*
X125769000Y-81138741D01*
X125769000Y-80961259D01*
X125803624Y-80787188D01*
X125871544Y-80623216D01*
X125970147Y-80475646D01*
X126095646Y-80350147D01*
X126243216Y-80251544D01*
X126407188Y-80183624D01*
X126556488Y-80153927D01*
X126581258Y-80149000D01*
X126758742Y-80149000D01*
X126783512Y-80153927D01*
G37*
G36*
X124243512Y-80153927D02*
G01*
X124392812Y-80183624D01*
X124556784Y-80251544D01*
X124704354Y-80350147D01*
X124829853Y-80475646D01*
X124928456Y-80623216D01*
X124996376Y-80787188D01*
X125031000Y-80961259D01*
X125031000Y-81138741D01*
X124996376Y-81312812D01*
X124928456Y-81476784D01*
X124829853Y-81624354D01*
X124704354Y-81749853D01*
X124556784Y-81848456D01*
X124392812Y-81916376D01*
X124243512Y-81946073D01*
X124218742Y-81951000D01*
X124041258Y-81951000D01*
X124016488Y-81946073D01*
X123867188Y-81916376D01*
X123703216Y-81848456D01*
X123555646Y-81749853D01*
X123430147Y-81624354D01*
X123331544Y-81476784D01*
X123263624Y-81312812D01*
X123229000Y-81138741D01*
X123229000Y-80961259D01*
X123263624Y-80787188D01*
X123331544Y-80623216D01*
X123430147Y-80475646D01*
X123555646Y-80350147D01*
X123703216Y-80251544D01*
X123867188Y-80183624D01*
X124016488Y-80153927D01*
X124041258Y-80149000D01*
X124218742Y-80149000D01*
X124243512Y-80153927D01*
G37*
G36*
X90650800Y-81670800D02*
G01*
X89749200Y-81670800D01*
X89749200Y-80669200D01*
X90650800Y-80669200D01*
X90650800Y-81670800D01*
G37*
G36*
X116085800Y-81610800D02*
G01*
X108234200Y-81610800D01*
X108234200Y-80509200D01*
X116085800Y-80509200D01*
X116085800Y-81610800D01*
G37*
G36*
X79250800Y-81430800D02*
G01*
X78249200Y-81430800D01*
X78249200Y-80629200D01*
X79250800Y-80629200D01*
X79250800Y-81430800D01*
G37*
G36*
X88860800Y-80990800D02*
G01*
X86759200Y-80990800D01*
X86759200Y-79189200D01*
X88860800Y-79189200D01*
X88860800Y-80990800D01*
G37*
G36*
X83860800Y-80990800D02*
G01*
X81759200Y-80990800D01*
X81759200Y-79189200D01*
X83860800Y-79189200D01*
X83860800Y-80990800D01*
G37*
G36*
X81250800Y-80480800D02*
G01*
X80249200Y-80480800D01*
X80249200Y-79679200D01*
X81250800Y-79679200D01*
X81250800Y-80480800D01*
G37*
G36*
X103159800Y-80305800D02*
G01*
X101280200Y-80305800D01*
X101280200Y-78680200D01*
X103159800Y-78680200D01*
X103159800Y-80305800D01*
G37*
G36*
X90650800Y-80070800D02*
G01*
X89749200Y-80070800D01*
X89749200Y-79069200D01*
X90650800Y-79069200D01*
X90650800Y-80070800D01*
G37*
G36*
X100188800Y-79805800D02*
G01*
X99587200Y-79805800D01*
X99587200Y-79154200D01*
X100188800Y-79154200D01*
X100188800Y-79805800D01*
G37*
G36*
X99172800Y-79805800D02*
G01*
X98571200Y-79805800D01*
X98571200Y-79154200D01*
X99172800Y-79154200D01*
X99172800Y-79805800D01*
G37*
G36*
X126783512Y-77613927D02*
G01*
X126932812Y-77643624D01*
X127096784Y-77711544D01*
X127244354Y-77810147D01*
X127369853Y-77935646D01*
X127468456Y-78083216D01*
X127536376Y-78247188D01*
X127571000Y-78421259D01*
X127571000Y-78598741D01*
X127536376Y-78772812D01*
X127468456Y-78936784D01*
X127369853Y-79084354D01*
X127244354Y-79209853D01*
X127096784Y-79308456D01*
X126932812Y-79376376D01*
X126783512Y-79406073D01*
X126758742Y-79411000D01*
X126581258Y-79411000D01*
X126556488Y-79406073D01*
X126407188Y-79376376D01*
X126243216Y-79308456D01*
X126095646Y-79209853D01*
X125970147Y-79084354D01*
X125871544Y-78936784D01*
X125803624Y-78772812D01*
X125769000Y-78598741D01*
X125769000Y-78421259D01*
X125803624Y-78247188D01*
X125871544Y-78083216D01*
X125970147Y-77935646D01*
X126095646Y-77810147D01*
X126243216Y-77711544D01*
X126407188Y-77643624D01*
X126556488Y-77613927D01*
X126581258Y-77609000D01*
X126758742Y-77609000D01*
X126783512Y-77613927D01*
G37*
G36*
X124243512Y-77613927D02*
G01*
X124392812Y-77643624D01*
X124556784Y-77711544D01*
X124704354Y-77810147D01*
X124829853Y-77935646D01*
X124928456Y-78083216D01*
X124996376Y-78247188D01*
X125031000Y-78421259D01*
X125031000Y-78598741D01*
X124996376Y-78772812D01*
X124928456Y-78936784D01*
X124829853Y-79084354D01*
X124704354Y-79209853D01*
X124556784Y-79308456D01*
X124392812Y-79376376D01*
X124243512Y-79406073D01*
X124218742Y-79411000D01*
X124041258Y-79411000D01*
X124016488Y-79406073D01*
X123867188Y-79376376D01*
X123703216Y-79308456D01*
X123555646Y-79209853D01*
X123430147Y-79084354D01*
X123331544Y-78936784D01*
X123263624Y-78772812D01*
X123229000Y-78598741D01*
X123229000Y-78421259D01*
X123263624Y-78247188D01*
X123331544Y-78083216D01*
X123430147Y-77935646D01*
X123555646Y-77810147D01*
X123703216Y-77711544D01*
X123867188Y-77643624D01*
X124016488Y-77613927D01*
X124041258Y-77609000D01*
X124218742Y-77609000D01*
X124243512Y-77613927D01*
G37*
G36*
X118610800Y-79085800D02*
G01*
X117509200Y-79085800D01*
X117509200Y-71234200D01*
X118610800Y-71234200D01*
X118610800Y-79085800D01*
G37*
G36*
X106810800Y-79085800D02*
G01*
X105709200Y-79085800D01*
X105709200Y-71234200D01*
X106810800Y-71234200D01*
X106810800Y-79085800D01*
G37*
G36*
X77540800Y-79020800D02*
G01*
X76539200Y-79020800D01*
X76539200Y-78219200D01*
X77540800Y-78219200D01*
X77540800Y-79020800D01*
G37*
G36*
X80498800Y-78945800D02*
G01*
X79897200Y-78945800D01*
X79897200Y-78294200D01*
X80498800Y-78294200D01*
X80498800Y-78945800D01*
G37*
G36*
X79482800Y-78945800D02*
G01*
X78881200Y-78945800D01*
X78881200Y-78294200D01*
X79482800Y-78294200D01*
X79482800Y-78945800D01*
G37*
G36*
X78505800Y-78918800D02*
G01*
X77854200Y-78918800D01*
X77854200Y-78317200D01*
X78505800Y-78317200D01*
X78505800Y-78918800D01*
G37*
G36*
X70707395Y-76765546D02*
G01*
X70880466Y-76837234D01*
X70880467Y-76837235D01*
X71036227Y-76941310D01*
X71168690Y-77073773D01*
X71168691Y-77073775D01*
X71272766Y-77229534D01*
X71344454Y-77402605D01*
X71381000Y-77586333D01*
X71381000Y-77773667D01*
X71344454Y-77957395D01*
X71272766Y-78130466D01*
X71272765Y-78130467D01*
X71168690Y-78286227D01*
X71036227Y-78418690D01*
X71032382Y-78421259D01*
X70880466Y-78522766D01*
X70707395Y-78594454D01*
X70523667Y-78631000D01*
X70336333Y-78631000D01*
X70152605Y-78594454D01*
X69979534Y-78522766D01*
X69827618Y-78421259D01*
X69823773Y-78418690D01*
X69691310Y-78286227D01*
X69587235Y-78130467D01*
X69587234Y-78130466D01*
X69515546Y-77957395D01*
X69479000Y-77773667D01*
X69479000Y-77586333D01*
X69515546Y-77402605D01*
X69587234Y-77229534D01*
X69691309Y-77073775D01*
X69691310Y-77073773D01*
X69823773Y-76941310D01*
X69979533Y-76837235D01*
X69979534Y-76837234D01*
X70152605Y-76765546D01*
X70336333Y-76729000D01*
X70523667Y-76729000D01*
X70707395Y-76765546D01*
G37*
G36*
X73896000Y-78606000D02*
G01*
X72044000Y-78606000D01*
X72044000Y-76754000D01*
X73896000Y-76754000D01*
X73896000Y-78606000D01*
G37*
G36*
X75540800Y-78070800D02*
G01*
X74539200Y-78070800D01*
X74539200Y-77269200D01*
X75540800Y-77269200D01*
X75540800Y-78070800D01*
G37*
G36*
X78505800Y-77902800D02*
G01*
X77854200Y-77902800D01*
X77854200Y-77301200D01*
X78505800Y-77301200D01*
X78505800Y-77902800D01*
G37*
G36*
X82287300Y-75994201D02*
G01*
X82289702Y-76018587D01*
X82296815Y-76042036D01*
X82308366Y-76063647D01*
X82308945Y-76064353D01*
X82292036Y-76055315D01*
X82268587Y-76048202D01*
X82244201Y-76045800D01*
X81995799Y-76045800D01*
X81971413Y-76048202D01*
X81947964Y-76055315D01*
X81926353Y-76066866D01*
X81907411Y-76082411D01*
X81891866Y-76101353D01*
X81880315Y-76122964D01*
X81873202Y-76146413D01*
X81870800Y-76170799D01*
X81870800Y-77521750D01*
X80869200Y-77521750D01*
X80869200Y-76170799D01*
X80866798Y-76146413D01*
X80859685Y-76122964D01*
X80848134Y-76101353D01*
X80832589Y-76082411D01*
X80813647Y-76066866D01*
X80792036Y-76055315D01*
X80768587Y-76048202D01*
X80744201Y-76045800D01*
X80495799Y-76045800D01*
X80471413Y-76048202D01*
X80447964Y-76055315D01*
X80431055Y-76064353D01*
X80431634Y-76063647D01*
X80443185Y-76042036D01*
X80450298Y-76018587D01*
X80452700Y-75994201D01*
X80452700Y-72819200D01*
X82287300Y-72819200D01*
X82287300Y-75994201D01*
G37*
G36*
X80391866Y-76101353D02*
G01*
X80380315Y-76122964D01*
X80373202Y-76146413D01*
X80370800Y-76170799D01*
X80370800Y-77520800D01*
X79369200Y-77520800D01*
X79369200Y-76119200D01*
X80327701Y-76119200D01*
X80352087Y-76116798D01*
X80375536Y-76109685D01*
X80392445Y-76100647D01*
X80391866Y-76101353D01*
G37*
G36*
X82364464Y-76109685D02*
G01*
X82387913Y-76116798D01*
X82412299Y-76119200D01*
X83370800Y-76119200D01*
X83370800Y-77520800D01*
X82369200Y-77520800D01*
X82369200Y-76170799D01*
X82366798Y-76146413D01*
X82359685Y-76122964D01*
X82348134Y-76101353D01*
X82347555Y-76100647D01*
X82364464Y-76109685D01*
G37*
G36*
X86490800Y-77260800D02*
G01*
X85489200Y-77260800D01*
X85489200Y-76359200D01*
X86490800Y-76359200D01*
X86490800Y-77260800D01*
G37*
G36*
X84890800Y-77260800D02*
G01*
X83889200Y-77260800D01*
X83889200Y-76359200D01*
X84890800Y-76359200D01*
X84890800Y-77260800D01*
G37*
G36*
X77540800Y-77120800D02*
G01*
X76539200Y-77120800D01*
X76539200Y-76319200D01*
X77540800Y-76319200D01*
X77540800Y-77120800D01*
G37*
G36*
X124243512Y-75073927D02*
G01*
X124392812Y-75103624D01*
X124556784Y-75171544D01*
X124704354Y-75270147D01*
X124829853Y-75395646D01*
X124928456Y-75543216D01*
X124996376Y-75707188D01*
X125025533Y-75853776D01*
X125031000Y-75881258D01*
X125031000Y-76058742D01*
X125029510Y-76066233D01*
X124996376Y-76232812D01*
X124928456Y-76396784D01*
X124829853Y-76544354D01*
X124704354Y-76669853D01*
X124556784Y-76768456D01*
X124392812Y-76836376D01*
X124243512Y-76866073D01*
X124218742Y-76871000D01*
X124041258Y-76871000D01*
X124016488Y-76866073D01*
X123867188Y-76836376D01*
X123703216Y-76768456D01*
X123555646Y-76669853D01*
X123430147Y-76544354D01*
X123331544Y-76396784D01*
X123263624Y-76232812D01*
X123230490Y-76066233D01*
X123229000Y-76058742D01*
X123229000Y-75881258D01*
X123234467Y-75853776D01*
X123263624Y-75707188D01*
X123331544Y-75543216D01*
X123430147Y-75395646D01*
X123555646Y-75270147D01*
X123703216Y-75171544D01*
X123867188Y-75103624D01*
X124016488Y-75073927D01*
X124041258Y-75069000D01*
X124218742Y-75069000D01*
X124243512Y-75073927D01*
G37*
G36*
X126783512Y-75073927D02*
G01*
X126932812Y-75103624D01*
X127096784Y-75171544D01*
X127244354Y-75270147D01*
X127369853Y-75395646D01*
X127468456Y-75543216D01*
X127536376Y-75707188D01*
X127565533Y-75853776D01*
X127571000Y-75881258D01*
X127571000Y-76058742D01*
X127569510Y-76066233D01*
X127536376Y-76232812D01*
X127468456Y-76396784D01*
X127369853Y-76544354D01*
X127244354Y-76669853D01*
X127096784Y-76768456D01*
X126932812Y-76836376D01*
X126783512Y-76866073D01*
X126758742Y-76871000D01*
X126581258Y-76871000D01*
X126556488Y-76866073D01*
X126407188Y-76836376D01*
X126243216Y-76768456D01*
X126095646Y-76669853D01*
X125970147Y-76544354D01*
X125871544Y-76396784D01*
X125803624Y-76232812D01*
X125770490Y-76066233D01*
X125769000Y-76058742D01*
X125769000Y-75881258D01*
X125774467Y-75853776D01*
X125803624Y-75707188D01*
X125871544Y-75543216D01*
X125970147Y-75395646D01*
X126095646Y-75270147D01*
X126243216Y-75171544D01*
X126407188Y-75103624D01*
X126556488Y-75073927D01*
X126581258Y-75069000D01*
X126758742Y-75069000D01*
X126783512Y-75073927D01*
G37*
G36*
X103136201Y-74847666D02*
G01*
X103263777Y-74900510D01*
X103378587Y-74977223D01*
X103476233Y-75074869D01*
X103552946Y-75189679D01*
X103605790Y-75317255D01*
X103632728Y-75452684D01*
X103632728Y-75590772D01*
X103605790Y-75726201D01*
X103552946Y-75853777D01*
X103476233Y-75968587D01*
X103378587Y-76066233D01*
X103263777Y-76142946D01*
X103136201Y-76195790D01*
X103000772Y-76222728D01*
X102862684Y-76222728D01*
X102727255Y-76195790D01*
X102599679Y-76142946D01*
X102484869Y-76066233D01*
X102387223Y-75968587D01*
X102310510Y-75853777D01*
X102257666Y-75726201D01*
X102230728Y-75590772D01*
X102230728Y-75452684D01*
X102257666Y-75317255D01*
X102310510Y-75189679D01*
X102387223Y-75074869D01*
X102484869Y-74977223D01*
X102599679Y-74900510D01*
X102727255Y-74847666D01*
X102862684Y-74820728D01*
X103000772Y-74820728D01*
X103136201Y-74847666D01*
G37*
G36*
X73247395Y-74225546D02*
G01*
X73420466Y-74297234D01*
X73420467Y-74297235D01*
X73576227Y-74401310D01*
X73708690Y-74533773D01*
X73708691Y-74533775D01*
X73812766Y-74689534D01*
X73884454Y-74862605D01*
X73921000Y-75046333D01*
X73921000Y-75233667D01*
X73884454Y-75417395D01*
X73812766Y-75590466D01*
X73761081Y-75667818D01*
X73708690Y-75746227D01*
X73576227Y-75878690D01*
X73572382Y-75881259D01*
X73420466Y-75982766D01*
X73247395Y-76054454D01*
X73063667Y-76091000D01*
X72876333Y-76091000D01*
X72692605Y-76054454D01*
X72519534Y-75982766D01*
X72367618Y-75881259D01*
X72363773Y-75878690D01*
X72231310Y-75746227D01*
X72178919Y-75667818D01*
X72127234Y-75590466D01*
X72055546Y-75417395D01*
X72019000Y-75233667D01*
X72019000Y-75046333D01*
X72055546Y-74862605D01*
X72127234Y-74689534D01*
X72231309Y-74533775D01*
X72231310Y-74533773D01*
X72363773Y-74401310D01*
X72519533Y-74297235D01*
X72519534Y-74297234D01*
X72692605Y-74225546D01*
X72876333Y-74189000D01*
X73063667Y-74189000D01*
X73247395Y-74225546D01*
G37*
G36*
X70707395Y-74225546D02*
G01*
X70880466Y-74297234D01*
X70880467Y-74297235D01*
X71036227Y-74401310D01*
X71168690Y-74533773D01*
X71168691Y-74533775D01*
X71272766Y-74689534D01*
X71344454Y-74862605D01*
X71381000Y-75046333D01*
X71381000Y-75233667D01*
X71344454Y-75417395D01*
X71272766Y-75590466D01*
X71221081Y-75667818D01*
X71168690Y-75746227D01*
X71036227Y-75878690D01*
X71032382Y-75881259D01*
X70880466Y-75982766D01*
X70707395Y-76054454D01*
X70523667Y-76091000D01*
X70336333Y-76091000D01*
X70152605Y-76054454D01*
X69979534Y-75982766D01*
X69827618Y-75881259D01*
X69823773Y-75878690D01*
X69691310Y-75746227D01*
X69638919Y-75667818D01*
X69587234Y-75590466D01*
X69515546Y-75417395D01*
X69479000Y-75233667D01*
X69479000Y-75046333D01*
X69515546Y-74862605D01*
X69587234Y-74689534D01*
X69691309Y-74533775D01*
X69691310Y-74533773D01*
X69823773Y-74401310D01*
X69979533Y-74297235D01*
X69979534Y-74297234D01*
X70152605Y-74225546D01*
X70336333Y-74189000D01*
X70523667Y-74189000D01*
X70707395Y-74225546D01*
G37*
G36*
X124243512Y-72533927D02*
G01*
X124392812Y-72563624D01*
X124556784Y-72631544D01*
X124704354Y-72730147D01*
X124829853Y-72855646D01*
X124928456Y-73003216D01*
X124996376Y-73167188D01*
X125031000Y-73341259D01*
X125031000Y-73518741D01*
X124996376Y-73692812D01*
X124928456Y-73856784D01*
X124829853Y-74004354D01*
X124704354Y-74129853D01*
X124556784Y-74228456D01*
X124392812Y-74296376D01*
X124243512Y-74326073D01*
X124218742Y-74331000D01*
X124041258Y-74331000D01*
X124016488Y-74326073D01*
X123867188Y-74296376D01*
X123703216Y-74228456D01*
X123555646Y-74129853D01*
X123430147Y-74004354D01*
X123331544Y-73856784D01*
X123263624Y-73692812D01*
X123229000Y-73518741D01*
X123229000Y-73341259D01*
X123263624Y-73167188D01*
X123331544Y-73003216D01*
X123430147Y-72855646D01*
X123555646Y-72730147D01*
X123703216Y-72631544D01*
X123867188Y-72563624D01*
X124016488Y-72533927D01*
X124041258Y-72529000D01*
X124218742Y-72529000D01*
X124243512Y-72533927D01*
G37*
G36*
X126783512Y-72533927D02*
G01*
X126932812Y-72563624D01*
X127096784Y-72631544D01*
X127244354Y-72730147D01*
X127369853Y-72855646D01*
X127468456Y-73003216D01*
X127536376Y-73167188D01*
X127571000Y-73341259D01*
X127571000Y-73518741D01*
X127536376Y-73692812D01*
X127468456Y-73856784D01*
X127369853Y-74004354D01*
X127244354Y-74129853D01*
X127096784Y-74228456D01*
X126932812Y-74296376D01*
X126783512Y-74326073D01*
X126758742Y-74331000D01*
X126581258Y-74331000D01*
X126556488Y-74326073D01*
X126407188Y-74296376D01*
X126243216Y-74228456D01*
X126095646Y-74129853D01*
X125970147Y-74004354D01*
X125871544Y-73856784D01*
X125803624Y-73692812D01*
X125769000Y-73518741D01*
X125769000Y-73341259D01*
X125803624Y-73167188D01*
X125871544Y-73003216D01*
X125970147Y-72855646D01*
X126095646Y-72730147D01*
X126243216Y-72631544D01*
X126407188Y-72563624D01*
X126556488Y-72533927D01*
X126581258Y-72529000D01*
X126758742Y-72529000D01*
X126783512Y-72533927D01*
G37*
G36*
X73247395Y-71685546D02*
G01*
X73420466Y-71757234D01*
X73420467Y-71757235D01*
X73576227Y-71861310D01*
X73708690Y-71993773D01*
X73708691Y-71993775D01*
X73812766Y-72149534D01*
X73884454Y-72322605D01*
X73921000Y-72506333D01*
X73921000Y-72693667D01*
X73884454Y-72877395D01*
X73812766Y-73050466D01*
X73761081Y-73127818D01*
X73708690Y-73206227D01*
X73576227Y-73338690D01*
X73572382Y-73341259D01*
X73420466Y-73442766D01*
X73247395Y-73514454D01*
X73063667Y-73551000D01*
X72876333Y-73551000D01*
X72692605Y-73514454D01*
X72519534Y-73442766D01*
X72367618Y-73341259D01*
X72363773Y-73338690D01*
X72231310Y-73206227D01*
X72178919Y-73127818D01*
X72127234Y-73050466D01*
X72055546Y-72877395D01*
X72019000Y-72693667D01*
X72019000Y-72506333D01*
X72055546Y-72322605D01*
X72127234Y-72149534D01*
X72231309Y-71993775D01*
X72231310Y-71993773D01*
X72363773Y-71861310D01*
X72519533Y-71757235D01*
X72519534Y-71757234D01*
X72692605Y-71685546D01*
X72876333Y-71649000D01*
X73063667Y-71649000D01*
X73247395Y-71685546D01*
G37*
G36*
X70707395Y-71685546D02*
G01*
X70880466Y-71757234D01*
X70880467Y-71757235D01*
X71036227Y-71861310D01*
X71168690Y-71993773D01*
X71168691Y-71993775D01*
X71272766Y-72149534D01*
X71344454Y-72322605D01*
X71381000Y-72506333D01*
X71381000Y-72693667D01*
X71344454Y-72877395D01*
X71272766Y-73050466D01*
X71221081Y-73127818D01*
X71168690Y-73206227D01*
X71036227Y-73338690D01*
X71032382Y-73341259D01*
X70880466Y-73442766D01*
X70707395Y-73514454D01*
X70523667Y-73551000D01*
X70336333Y-73551000D01*
X70152605Y-73514454D01*
X69979534Y-73442766D01*
X69827618Y-73341259D01*
X69823773Y-73338690D01*
X69691310Y-73206227D01*
X69638919Y-73127818D01*
X69587234Y-73050466D01*
X69515546Y-72877395D01*
X69479000Y-72693667D01*
X69479000Y-72506333D01*
X69515546Y-72322605D01*
X69587234Y-72149534D01*
X69691309Y-71993775D01*
X69691310Y-71993773D01*
X69823773Y-71861310D01*
X69979533Y-71757235D01*
X69979534Y-71757234D01*
X70152605Y-71685546D01*
X70336333Y-71649000D01*
X70523667Y-71649000D01*
X70707395Y-71685546D01*
G37*
G36*
X81870800Y-72150800D02*
G01*
X80869200Y-72150800D01*
X80869200Y-71249200D01*
X81870800Y-71249200D01*
X81870800Y-72150800D01*
G37*
G36*
X80270800Y-72150800D02*
G01*
X79269200Y-72150800D01*
X79269200Y-71249200D01*
X80270800Y-71249200D01*
X80270800Y-72150800D01*
G37*
G36*
X121803607Y-69964277D02*
G01*
X121864129Y-69976316D01*
X122035162Y-70047160D01*
X122189087Y-70150010D01*
X122319990Y-70280913D01*
X122422840Y-70434838D01*
X122493684Y-70605871D01*
X122529800Y-70787438D01*
X122529800Y-70972562D01*
X122493684Y-71154129D01*
X122422840Y-71325162D01*
X122319990Y-71479087D01*
X122189087Y-71609990D01*
X122035162Y-71712840D01*
X121864129Y-71783684D01*
X121827349Y-71791000D01*
X121682564Y-71819800D01*
X121497436Y-71819800D01*
X121352651Y-71791000D01*
X121315871Y-71783684D01*
X121144838Y-71712840D01*
X120990913Y-71609990D01*
X120860010Y-71479087D01*
X120757160Y-71325162D01*
X120686316Y-71154129D01*
X120650200Y-70972562D01*
X120650200Y-70787438D01*
X120686316Y-70605871D01*
X120757160Y-70434838D01*
X120860010Y-70280913D01*
X120990913Y-70150010D01*
X121144838Y-70047160D01*
X121315871Y-69976316D01*
X121376393Y-69964277D01*
X121497436Y-69940200D01*
X121682564Y-69940200D01*
X121803607Y-69964277D01*
G37*
G36*
X126783512Y-69993927D02*
G01*
X126932812Y-70023624D01*
X127096784Y-70091544D01*
X127244354Y-70190147D01*
X127369853Y-70315646D01*
X127468456Y-70463216D01*
X127536376Y-70627188D01*
X127571000Y-70801259D01*
X127571000Y-70978741D01*
X127536376Y-71152812D01*
X127468456Y-71316784D01*
X127369853Y-71464354D01*
X127244354Y-71589853D01*
X127096784Y-71688456D01*
X126932812Y-71756376D01*
X126783512Y-71786073D01*
X126758742Y-71791000D01*
X126581258Y-71791000D01*
X126556488Y-71786073D01*
X126407188Y-71756376D01*
X126243216Y-71688456D01*
X126095646Y-71589853D01*
X125970147Y-71464354D01*
X125871544Y-71316784D01*
X125803624Y-71152812D01*
X125769000Y-70978741D01*
X125769000Y-70801259D01*
X125803624Y-70627188D01*
X125871544Y-70463216D01*
X125970147Y-70315646D01*
X126095646Y-70190147D01*
X126243216Y-70091544D01*
X126407188Y-70023624D01*
X126556488Y-69993927D01*
X126581258Y-69989000D01*
X126758742Y-69989000D01*
X126783512Y-69993927D01*
G37*
G36*
X124243512Y-69993927D02*
G01*
X124392812Y-70023624D01*
X124556784Y-70091544D01*
X124704354Y-70190147D01*
X124829853Y-70315646D01*
X124928456Y-70463216D01*
X124996376Y-70627188D01*
X125031000Y-70801259D01*
X125031000Y-70978741D01*
X124996376Y-71152812D01*
X124928456Y-71316784D01*
X124829853Y-71464354D01*
X124704354Y-71589853D01*
X124556784Y-71688456D01*
X124392812Y-71756376D01*
X124243512Y-71786073D01*
X124218742Y-71791000D01*
X124041258Y-71791000D01*
X124016488Y-71786073D01*
X123867188Y-71756376D01*
X123703216Y-71688456D01*
X123555646Y-71589853D01*
X123430147Y-71464354D01*
X123331544Y-71316784D01*
X123263624Y-71152812D01*
X123229000Y-70978741D01*
X123229000Y-70801259D01*
X123263624Y-70627188D01*
X123331544Y-70463216D01*
X123430147Y-70315646D01*
X123555646Y-70190147D01*
X123703216Y-70091544D01*
X123867188Y-70023624D01*
X124016488Y-69993927D01*
X124041258Y-69989000D01*
X124218742Y-69989000D01*
X124243512Y-69993927D01*
G37*
G36*
X73247395Y-69145546D02*
G01*
X73420466Y-69217234D01*
X73420467Y-69217235D01*
X73576227Y-69321310D01*
X73708690Y-69453773D01*
X73708691Y-69453775D01*
X73812766Y-69609534D01*
X73884454Y-69782605D01*
X73921000Y-69966333D01*
X73921000Y-70153667D01*
X73884454Y-70337395D01*
X73812766Y-70510466D01*
X73812765Y-70510467D01*
X73708690Y-70666227D01*
X73576227Y-70798690D01*
X73572382Y-70801259D01*
X73420466Y-70902766D01*
X73247395Y-70974454D01*
X73063667Y-71011000D01*
X72876333Y-71011000D01*
X72692605Y-70974454D01*
X72519534Y-70902766D01*
X72367618Y-70801259D01*
X72363773Y-70798690D01*
X72231310Y-70666227D01*
X72127235Y-70510467D01*
X72127234Y-70510466D01*
X72055546Y-70337395D01*
X72019000Y-70153667D01*
X72019000Y-69966333D01*
X72055546Y-69782605D01*
X72127234Y-69609534D01*
X72231309Y-69453775D01*
X72231310Y-69453773D01*
X72363773Y-69321310D01*
X72519533Y-69217235D01*
X72519534Y-69217234D01*
X72692605Y-69145546D01*
X72876333Y-69109000D01*
X73063667Y-69109000D01*
X73247395Y-69145546D01*
G37*
G36*
X70707395Y-69145546D02*
G01*
X70880466Y-69217234D01*
X70880467Y-69217235D01*
X71036227Y-69321310D01*
X71168690Y-69453773D01*
X71168691Y-69453775D01*
X71272766Y-69609534D01*
X71344454Y-69782605D01*
X71381000Y-69966333D01*
X71381000Y-70153667D01*
X71344454Y-70337395D01*
X71272766Y-70510466D01*
X71272765Y-70510467D01*
X71168690Y-70666227D01*
X71036227Y-70798690D01*
X71032382Y-70801259D01*
X70880466Y-70902766D01*
X70707395Y-70974454D01*
X70523667Y-71011000D01*
X70336333Y-71011000D01*
X70152605Y-70974454D01*
X69979534Y-70902766D01*
X69827618Y-70801259D01*
X69823773Y-70798690D01*
X69691310Y-70666227D01*
X69587235Y-70510467D01*
X69587234Y-70510466D01*
X69515546Y-70337395D01*
X69479000Y-70153667D01*
X69479000Y-69966333D01*
X69515546Y-69782605D01*
X69587234Y-69609534D01*
X69691309Y-69453775D01*
X69691310Y-69453773D01*
X69823773Y-69321310D01*
X69979533Y-69217235D01*
X69979534Y-69217234D01*
X70152605Y-69145546D01*
X70336333Y-69109000D01*
X70523667Y-69109000D01*
X70707395Y-69145546D01*
G37*
G36*
X116085800Y-69810800D02*
G01*
X108234200Y-69810800D01*
X108234200Y-68709200D01*
X116085800Y-68709200D01*
X116085800Y-69810800D01*
G37*
G36*
X122529800Y-69279800D02*
G01*
X120650200Y-69279800D01*
X120650200Y-67400200D01*
X122529800Y-67400200D01*
X122529800Y-69279800D01*
G37*
G36*
X126783512Y-67453927D02*
G01*
X126932812Y-67483624D01*
X127096784Y-67551544D01*
X127244354Y-67650147D01*
X127369853Y-67775646D01*
X127468456Y-67923216D01*
X127536376Y-68087188D01*
X127571000Y-68261259D01*
X127571000Y-68438741D01*
X127536376Y-68612812D01*
X127468456Y-68776784D01*
X127369853Y-68924354D01*
X127244354Y-69049853D01*
X127096784Y-69148456D01*
X126932812Y-69216376D01*
X126783512Y-69246073D01*
X126758742Y-69251000D01*
X126581258Y-69251000D01*
X126556488Y-69246073D01*
X126407188Y-69216376D01*
X126243216Y-69148456D01*
X126095646Y-69049853D01*
X125970147Y-68924354D01*
X125871544Y-68776784D01*
X125803624Y-68612812D01*
X125769000Y-68438741D01*
X125769000Y-68261259D01*
X125803624Y-68087188D01*
X125871544Y-67923216D01*
X125970147Y-67775646D01*
X126095646Y-67650147D01*
X126243216Y-67551544D01*
X126407188Y-67483624D01*
X126556488Y-67453927D01*
X126581258Y-67449000D01*
X126758742Y-67449000D01*
X126783512Y-67453927D01*
G37*
G36*
X124243512Y-67453927D02*
G01*
X124392812Y-67483624D01*
X124556784Y-67551544D01*
X124704354Y-67650147D01*
X124829853Y-67775646D01*
X124928456Y-67923216D01*
X124996376Y-68087188D01*
X125031000Y-68261259D01*
X125031000Y-68438741D01*
X124996376Y-68612812D01*
X124928456Y-68776784D01*
X124829853Y-68924354D01*
X124704354Y-69049853D01*
X124556784Y-69148456D01*
X124392812Y-69216376D01*
X124243512Y-69246073D01*
X124218742Y-69251000D01*
X124041258Y-69251000D01*
X124016488Y-69246073D01*
X123867188Y-69216376D01*
X123703216Y-69148456D01*
X123555646Y-69049853D01*
X123430147Y-68924354D01*
X123331544Y-68776784D01*
X123263624Y-68612812D01*
X123229000Y-68438741D01*
X123229000Y-68261259D01*
X123263624Y-68087188D01*
X123331544Y-67923216D01*
X123430147Y-67775646D01*
X123555646Y-67650147D01*
X123703216Y-67551544D01*
X123867188Y-67483624D01*
X124016488Y-67453927D01*
X124041258Y-67449000D01*
X124218742Y-67449000D01*
X124243512Y-67453927D01*
G37*
G36*
X70707395Y-66605546D02*
G01*
X70880466Y-66677234D01*
X70880467Y-66677235D01*
X71036227Y-66781310D01*
X71168690Y-66913773D01*
X71168691Y-66913775D01*
X71272766Y-67069534D01*
X71344454Y-67242605D01*
X71381000Y-67426333D01*
X71381000Y-67613667D01*
X71344454Y-67797395D01*
X71272766Y-67970466D01*
X71272765Y-67970467D01*
X71168690Y-68126227D01*
X71036227Y-68258690D01*
X71032382Y-68261259D01*
X70880466Y-68362766D01*
X70707395Y-68434454D01*
X70523667Y-68471000D01*
X70336333Y-68471000D01*
X70152605Y-68434454D01*
X69979534Y-68362766D01*
X69827618Y-68261259D01*
X69823773Y-68258690D01*
X69691310Y-68126227D01*
X69587235Y-67970467D01*
X69587234Y-67970466D01*
X69515546Y-67797395D01*
X69479000Y-67613667D01*
X69479000Y-67426333D01*
X69515546Y-67242605D01*
X69587234Y-67069534D01*
X69691309Y-66913775D01*
X69691310Y-66913773D01*
X69823773Y-66781310D01*
X69979533Y-66677235D01*
X69979534Y-66677234D01*
X70152605Y-66605546D01*
X70336333Y-66569000D01*
X70523667Y-66569000D01*
X70707395Y-66605546D01*
G37*
G36*
X73247395Y-66605546D02*
G01*
X73420466Y-66677234D01*
X73420467Y-66677235D01*
X73576227Y-66781310D01*
X73708690Y-66913773D01*
X73708691Y-66913775D01*
X73812766Y-67069534D01*
X73884454Y-67242605D01*
X73921000Y-67426333D01*
X73921000Y-67613667D01*
X73884454Y-67797395D01*
X73812766Y-67970466D01*
X73812765Y-67970467D01*
X73708690Y-68126227D01*
X73576227Y-68258690D01*
X73572382Y-68261259D01*
X73420466Y-68362766D01*
X73247395Y-68434454D01*
X73063667Y-68471000D01*
X72876333Y-68471000D01*
X72692605Y-68434454D01*
X72519534Y-68362766D01*
X72367618Y-68261259D01*
X72363773Y-68258690D01*
X72231310Y-68126227D01*
X72127235Y-67970467D01*
X72127234Y-67970466D01*
X72055546Y-67797395D01*
X72019000Y-67613667D01*
X72019000Y-67426333D01*
X72055546Y-67242605D01*
X72127234Y-67069534D01*
X72231309Y-66913775D01*
X72231310Y-66913773D01*
X72363773Y-66781310D01*
X72519533Y-66677235D01*
X72519534Y-66677234D01*
X72692605Y-66605546D01*
X72876333Y-66569000D01*
X73063667Y-66569000D01*
X73247395Y-66605546D01*
G37*
G36*
X112735800Y-68198800D02*
G01*
X112084200Y-68198800D01*
X112084200Y-67597200D01*
X112735800Y-67597200D01*
X112735800Y-68198800D01*
G37*
G36*
X112735800Y-67182800D02*
G01*
X112084200Y-67182800D01*
X112084200Y-66581200D01*
X112735800Y-66581200D01*
X112735800Y-67182800D01*
G37*
G36*
X127160382Y-61616689D02*
G01*
X127469944Y-61744914D01*
X127469945Y-61744915D01*
X127748544Y-61931068D01*
X127985473Y-62167997D01*
X128109857Y-62354151D01*
X128171627Y-62446597D01*
X128299852Y-62756159D01*
X128365220Y-63084786D01*
X128365220Y-63419856D01*
X128299852Y-63748483D01*
X128171627Y-64058045D01*
X128171626Y-64058046D01*
X127985473Y-64336645D01*
X127748544Y-64573574D01*
X127562390Y-64697958D01*
X127469944Y-64759728D01*
X127160382Y-64887953D01*
X126831755Y-64953321D01*
X126496685Y-64953321D01*
X126168058Y-64887953D01*
X125858496Y-64759728D01*
X125766050Y-64697958D01*
X125579896Y-64573574D01*
X125342967Y-64336645D01*
X125156814Y-64058046D01*
X125156813Y-64058045D01*
X125028588Y-63748483D01*
X124963220Y-63419856D01*
X124963220Y-63084786D01*
X125028588Y-62756159D01*
X125156813Y-62446597D01*
X125218583Y-62354151D01*
X125342967Y-62167997D01*
X125579896Y-61931068D01*
X125858495Y-61744915D01*
X125858496Y-61744914D01*
X126168058Y-61616689D01*
X126496685Y-61551321D01*
X126831755Y-61551321D01*
X127160382Y-61616689D01*
G37*
G36*
X62822321Y-62685047D02*
G01*
X62882889Y-62697095D01*
X62939943Y-62720728D01*
X62996997Y-62744360D01*
X63099687Y-62812975D01*
X63187025Y-62900313D01*
X63255640Y-63003003D01*
X63255640Y-63003004D01*
X63302905Y-63117111D01*
X63327000Y-63238246D01*
X63327000Y-63361754D01*
X63303283Y-63480991D01*
X63302905Y-63482888D01*
X63255640Y-63596997D01*
X63187025Y-63699687D01*
X63099687Y-63787025D01*
X62996997Y-63855640D01*
X62939942Y-63879273D01*
X62882889Y-63902905D01*
X62822322Y-63914952D01*
X62761755Y-63927000D01*
X62638245Y-63927000D01*
X62577678Y-63914952D01*
X62517111Y-63902905D01*
X62460058Y-63879273D01*
X62403003Y-63855640D01*
X62300313Y-63787025D01*
X62212975Y-63699687D01*
X62144360Y-63596997D01*
X62097095Y-63482888D01*
X62096718Y-63480991D01*
X62073000Y-63361754D01*
X62073000Y-63238246D01*
X62097095Y-63117111D01*
X62144360Y-63003004D01*
X62144360Y-63003003D01*
X62212975Y-62900313D01*
X62300313Y-62812975D01*
X62403003Y-62744360D01*
X62460057Y-62720728D01*
X62517111Y-62697095D01*
X62577679Y-62685047D01*
X62638245Y-62673000D01*
X62761755Y-62673000D01*
X62822321Y-62685047D01*
G37*
G36*
X80172800Y-63855800D02*
G01*
X79571200Y-63855800D01*
X79571200Y-63204200D01*
X80172800Y-63204200D01*
X80172800Y-63855800D01*
G37*
G36*
X81188800Y-63855800D02*
G01*
X80587200Y-63855800D01*
X80587200Y-63204200D01*
X81188800Y-63204200D01*
X81188800Y-63855800D01*
G37*
G36*
X65328521Y-62523174D02*
G01*
X65428795Y-62564709D01*
X65428796Y-62564710D01*
X65519042Y-62625010D01*
X65595790Y-62701758D01*
X65595791Y-62701760D01*
X65656091Y-62792005D01*
X65697626Y-62892279D01*
X65718800Y-62998730D01*
X65718800Y-63107270D01*
X65697626Y-63213721D01*
X65656091Y-63313995D01*
X65656090Y-63313996D01*
X65595790Y-63404242D01*
X65519042Y-63480990D01*
X65473612Y-63511345D01*
X65428795Y-63541291D01*
X65328521Y-63582826D01*
X65222070Y-63604000D01*
X65113530Y-63604000D01*
X65007079Y-63582826D01*
X64906805Y-63541291D01*
X64861988Y-63511345D01*
X64816558Y-63480990D01*
X64739810Y-63404242D01*
X64679510Y-63313996D01*
X64679509Y-63313995D01*
X64637974Y-63213721D01*
X64616800Y-63107270D01*
X64616800Y-62998730D01*
X64637974Y-62892279D01*
X64679509Y-62792005D01*
X64739809Y-62701760D01*
X64739810Y-62701758D01*
X64816558Y-62625010D01*
X64906804Y-62564710D01*
X64906805Y-62564709D01*
X65007079Y-62523174D01*
X65113530Y-62502000D01*
X65222070Y-62502000D01*
X65328521Y-62523174D01*
G37*
G36*
X81178800Y-62765800D02*
G01*
X80577200Y-62765800D01*
X80577200Y-62114200D01*
X81178800Y-62114200D01*
X81178800Y-62765800D01*
G37*
G36*
X80162800Y-62765800D02*
G01*
X79561200Y-62765800D01*
X79561200Y-62114200D01*
X80162800Y-62114200D01*
X80162800Y-62765800D01*
G37*
G36*
X122082800Y-62040800D02*
G01*
X120181200Y-62040800D01*
X120181200Y-61239200D01*
X122082800Y-61239200D01*
X122082800Y-62040800D01*
G37*
G36*
X118018800Y-62040800D02*
G01*
X116117200Y-62040800D01*
X116117200Y-61239200D01*
X118018800Y-61239200D01*
X118018800Y-62040800D01*
G37*
G36*
X88640512Y-60351977D02*
G01*
X88768088Y-60404821D01*
X88882898Y-60481534D01*
X88980544Y-60579180D01*
X89057257Y-60693990D01*
X89110101Y-60821566D01*
X89137039Y-60956995D01*
X89137039Y-61095083D01*
X89110101Y-61230512D01*
X89057257Y-61358088D01*
X88980544Y-61472898D01*
X88882898Y-61570544D01*
X88768088Y-61647257D01*
X88640512Y-61700101D01*
X88505083Y-61727039D01*
X88366995Y-61727039D01*
X88231566Y-61700101D01*
X88103990Y-61647257D01*
X87989180Y-61570544D01*
X87891534Y-61472898D01*
X87814821Y-61358088D01*
X87761977Y-61230512D01*
X87735039Y-61095083D01*
X87735039Y-60956995D01*
X87761977Y-60821566D01*
X87814821Y-60693990D01*
X87891534Y-60579180D01*
X87989180Y-60481534D01*
X88103990Y-60404821D01*
X88231566Y-60351977D01*
X88366995Y-60325039D01*
X88505083Y-60325039D01*
X88640512Y-60351977D01*
G37*
G36*
X64748800Y-61465800D02*
G01*
X64147200Y-61465800D01*
X64147200Y-60814200D01*
X64748800Y-60814200D01*
X64748800Y-61465800D01*
G37*
G36*
X63732800Y-61465800D02*
G01*
X63131200Y-61465800D01*
X63131200Y-60814200D01*
X63732800Y-60814200D01*
X63732800Y-61465800D01*
G37*
G36*
X119216908Y-60619602D02*
G01*
X119289848Y-60649815D01*
X119289850Y-60649816D01*
X119322895Y-60671896D01*
X119355494Y-60693678D01*
X119411322Y-60749506D01*
X119455185Y-60815152D01*
X119485398Y-60888092D01*
X119500800Y-60965523D01*
X119500800Y-61044477D01*
X119485398Y-61121908D01*
X119455185Y-61194848D01*
X119455184Y-61194850D01*
X119411321Y-61260495D01*
X119355495Y-61316321D01*
X119289850Y-61360184D01*
X119289849Y-61360185D01*
X119289848Y-61360185D01*
X119216908Y-61390398D01*
X119139477Y-61405800D01*
X119060523Y-61405800D01*
X118983092Y-61390398D01*
X118910152Y-61360185D01*
X118910151Y-61360185D01*
X118910150Y-61360184D01*
X118844505Y-61316321D01*
X118788679Y-61260495D01*
X118744816Y-61194850D01*
X118744815Y-61194848D01*
X118714602Y-61121908D01*
X118699200Y-61044477D01*
X118699200Y-60965523D01*
X118714602Y-60888092D01*
X118744815Y-60815152D01*
X118788678Y-60749506D01*
X118844506Y-60693678D01*
X118877105Y-60671896D01*
X118910150Y-60649816D01*
X118910152Y-60649815D01*
X118983092Y-60619602D01*
X119060523Y-60604200D01*
X119139477Y-60604200D01*
X119216908Y-60619602D01*
G37*
G36*
X70828800Y-60815800D02*
G01*
X70227200Y-60815800D01*
X70227200Y-60164200D01*
X70828800Y-60164200D01*
X70828800Y-60815800D01*
G37*
G36*
X72878800Y-60815800D02*
G01*
X72277200Y-60815800D01*
X72277200Y-60164200D01*
X72878800Y-60164200D01*
X72878800Y-60815800D01*
G37*
G36*
X71862800Y-60815800D02*
G01*
X71261200Y-60815800D01*
X71261200Y-60164200D01*
X71862800Y-60164200D01*
X71862800Y-60815800D01*
G37*
G36*
X69812800Y-60815800D02*
G01*
X69211200Y-60815800D01*
X69211200Y-60164200D01*
X69812800Y-60164200D01*
X69812800Y-60815800D01*
G37*
G36*
X118018800Y-60770800D02*
G01*
X116117200Y-60770800D01*
X116117200Y-59969200D01*
X118018800Y-59969200D01*
X118018800Y-60770800D01*
G37*
G36*
X122082800Y-60770800D02*
G01*
X120181200Y-60770800D01*
X120181200Y-59969200D01*
X122082800Y-59969200D01*
X122082800Y-60770800D01*
G37*
G36*
X67299771Y-58653909D02*
G01*
X67347579Y-58658617D01*
X67470255Y-58695831D01*
X67470258Y-58695832D01*
X67583313Y-58756261D01*
X67682412Y-58837588D01*
X67763739Y-58936687D01*
X67824168Y-59049742D01*
X67824169Y-59049745D01*
X67861383Y-59172421D01*
X67873948Y-59300000D01*
X67861383Y-59427579D01*
X67839171Y-59500800D01*
X67824168Y-59550258D01*
X67763739Y-59663313D01*
X67682412Y-59762412D01*
X67583313Y-59843739D01*
X67470258Y-59904168D01*
X67470255Y-59904169D01*
X67347579Y-59941383D01*
X67299771Y-59946092D01*
X67251965Y-59950800D01*
X66588035Y-59950800D01*
X66540229Y-59946092D01*
X66492421Y-59941383D01*
X66369745Y-59904169D01*
X66369742Y-59904168D01*
X66256687Y-59843739D01*
X66157588Y-59762412D01*
X66076261Y-59663313D01*
X66015832Y-59550258D01*
X66000829Y-59500800D01*
X65978617Y-59427579D01*
X65966052Y-59300000D01*
X65978617Y-59172421D01*
X66015831Y-59049745D01*
X66015832Y-59049742D01*
X66076261Y-58936687D01*
X66157588Y-58837588D01*
X66256687Y-58756261D01*
X66369742Y-58695832D01*
X66369745Y-58695831D01*
X66492421Y-58658617D01*
X66540229Y-58653909D01*
X66588035Y-58649200D01*
X67251965Y-58649200D01*
X67299771Y-58653909D01*
G37*
G36*
X63829771Y-58653909D02*
G01*
X63877579Y-58658617D01*
X64000255Y-58695831D01*
X64000258Y-58695832D01*
X64113313Y-58756261D01*
X64212412Y-58837588D01*
X64293739Y-58936687D01*
X64354168Y-59049742D01*
X64354169Y-59049745D01*
X64391383Y-59172421D01*
X64403948Y-59300000D01*
X64391383Y-59427579D01*
X64369171Y-59500800D01*
X64354168Y-59550258D01*
X64293739Y-59663313D01*
X64212412Y-59762412D01*
X64113313Y-59843739D01*
X64000258Y-59904168D01*
X64000255Y-59904169D01*
X63877579Y-59941383D01*
X63829771Y-59946092D01*
X63781965Y-59950800D01*
X63118035Y-59950800D01*
X63070229Y-59946092D01*
X63022421Y-59941383D01*
X62899745Y-59904169D01*
X62899742Y-59904168D01*
X62786687Y-59843739D01*
X62687588Y-59762412D01*
X62606261Y-59663313D01*
X62545832Y-59550258D01*
X62530829Y-59500800D01*
X62508617Y-59427579D01*
X62496052Y-59300000D01*
X62508617Y-59172421D01*
X62545831Y-59049745D01*
X62545832Y-59049742D01*
X62606261Y-58936687D01*
X62687588Y-58837588D01*
X62786687Y-58756261D01*
X62899742Y-58695832D01*
X62899745Y-58695831D01*
X63022421Y-58658617D01*
X63070229Y-58653909D01*
X63118035Y-58649200D01*
X63781965Y-58649200D01*
X63829771Y-58653909D01*
G37*
G36*
X73040800Y-59740800D02*
G01*
X72239200Y-59740800D01*
X72239200Y-58739200D01*
X73040800Y-58739200D01*
X73040800Y-59740800D01*
G37*
G36*
X71140800Y-59740800D02*
G01*
X70339200Y-59740800D01*
X70339200Y-58739200D01*
X71140800Y-58739200D01*
X71140800Y-59740800D01*
G37*
G36*
X122082800Y-59500800D02*
G01*
X120181200Y-59500800D01*
X120181200Y-58699200D01*
X122082800Y-58699200D01*
X122082800Y-59500800D01*
G37*
G36*
X118018800Y-59500800D02*
G01*
X116117200Y-59500800D01*
X116117200Y-58699200D01*
X118018800Y-58699200D01*
X118018800Y-59500800D01*
G37*
G36*
X78025800Y-59108800D02*
G01*
X77374200Y-59108800D01*
X77374200Y-58507200D01*
X78025800Y-58507200D01*
X78025800Y-59108800D01*
G37*
G36*
X125192321Y-57165047D02*
G01*
X125252889Y-57177095D01*
X125309942Y-57200727D01*
X125366997Y-57224360D01*
X125469687Y-57292975D01*
X125557025Y-57380313D01*
X125625640Y-57483003D01*
X125635299Y-57506322D01*
X125672905Y-57597111D01*
X125697000Y-57718246D01*
X125697000Y-57841754D01*
X125672905Y-57962889D01*
X125653029Y-58010874D01*
X125625640Y-58076997D01*
X125557025Y-58179687D01*
X125469687Y-58267025D01*
X125366997Y-58335640D01*
X125318326Y-58355800D01*
X125252889Y-58382905D01*
X125192321Y-58394953D01*
X125131755Y-58407000D01*
X125008245Y-58407000D01*
X124947679Y-58394953D01*
X124887111Y-58382905D01*
X124821674Y-58355800D01*
X124773003Y-58335640D01*
X124670313Y-58267025D01*
X124582975Y-58179687D01*
X124514360Y-58076997D01*
X124486971Y-58010874D01*
X124467095Y-57962889D01*
X124443000Y-57841754D01*
X124443000Y-57718246D01*
X124467095Y-57597111D01*
X124504701Y-57506322D01*
X124514360Y-57483003D01*
X124582975Y-57380313D01*
X124670313Y-57292975D01*
X124773003Y-57224360D01*
X124830058Y-57200727D01*
X124887111Y-57177095D01*
X124947679Y-57165047D01*
X125008245Y-57153000D01*
X125131755Y-57153000D01*
X125192321Y-57165047D01*
G37*
G36*
X80162800Y-58355800D02*
G01*
X79561200Y-58355800D01*
X79561200Y-57704200D01*
X80162800Y-57704200D01*
X80162800Y-58355800D01*
G37*
G36*
X81178800Y-58355800D02*
G01*
X80577200Y-58355800D01*
X80577200Y-57704200D01*
X81178800Y-57704200D01*
X81178800Y-58355800D01*
G37*
G36*
X122082800Y-58230800D02*
G01*
X120181200Y-58230800D01*
X120181200Y-57429200D01*
X122082800Y-57429200D01*
X122082800Y-58230800D01*
G37*
G36*
X118018800Y-58230800D02*
G01*
X116117200Y-58230800D01*
X116117200Y-57429200D01*
X118018800Y-57429200D01*
X118018800Y-58230800D01*
G37*
G36*
X78025800Y-58092800D02*
G01*
X77374200Y-58092800D01*
X77374200Y-57491200D01*
X78025800Y-57491200D01*
X78025800Y-58092800D01*
G37*
G36*
X65702324Y-53362681D02*
G01*
X65766166Y-53389125D01*
X65823622Y-53427516D01*
X65872484Y-53476378D01*
X65910875Y-53533834D01*
X65937319Y-53597676D01*
X65950800Y-53665449D01*
X65950800Y-53734551D01*
X65937319Y-53802324D01*
X65922178Y-53838877D01*
X65915069Y-53862314D01*
X65912667Y-53886700D01*
X65915069Y-53911086D01*
X65922182Y-53934535D01*
X65933732Y-53956146D01*
X65949278Y-53975088D01*
X65968219Y-53990633D01*
X65989830Y-54002185D01*
X66013279Y-54009298D01*
X66037666Y-54011700D01*
X67725800Y-54011700D01*
X67725800Y-57388300D01*
X66037666Y-57388300D01*
X66013280Y-57390702D01*
X65989831Y-57397815D01*
X65968220Y-57409366D01*
X65949278Y-57424911D01*
X65933733Y-57443853D01*
X65922182Y-57465464D01*
X65915069Y-57488913D01*
X65912667Y-57513299D01*
X65915069Y-57537685D01*
X65922178Y-57561123D01*
X65937319Y-57597676D01*
X65950800Y-57665449D01*
X65950800Y-57734551D01*
X65937319Y-57802324D01*
X65910875Y-57866166D01*
X65872484Y-57923622D01*
X65823622Y-57972484D01*
X65766166Y-58010875D01*
X65702324Y-58037319D01*
X65634551Y-58050800D01*
X65565449Y-58050800D01*
X65497676Y-58037319D01*
X65433834Y-58010875D01*
X65376378Y-57972484D01*
X65327516Y-57923622D01*
X65289125Y-57866166D01*
X65262681Y-57802324D01*
X65249200Y-57734551D01*
X65249200Y-57665449D01*
X65262681Y-57597676D01*
X65289125Y-57533834D01*
X65327516Y-57476378D01*
X65376378Y-57427516D01*
X65433834Y-57389125D01*
X65497676Y-57362681D01*
X65565449Y-57349200D01*
X65634551Y-57349200D01*
X65702324Y-57362681D01*
X65766166Y-57389125D01*
X65779763Y-57398210D01*
X65801366Y-57409757D01*
X65824815Y-57416870D01*
X65849201Y-57419272D01*
X65873587Y-57416870D01*
X65897036Y-57409757D01*
X65918647Y-57398206D01*
X65937589Y-57382661D01*
X65953134Y-57363719D01*
X65964685Y-57342108D01*
X65971798Y-57318659D01*
X65974200Y-57294273D01*
X65974200Y-54105727D01*
X65971798Y-54081341D01*
X65964685Y-54057892D01*
X65953134Y-54036281D01*
X65937589Y-54017339D01*
X65918647Y-54001794D01*
X65897036Y-53990243D01*
X65873587Y-53983130D01*
X65849201Y-53980728D01*
X65824815Y-53983130D01*
X65801366Y-53990243D01*
X65779763Y-54001790D01*
X65766166Y-54010875D01*
X65702324Y-54037319D01*
X65634551Y-54050800D01*
X65565449Y-54050800D01*
X65497676Y-54037319D01*
X65433834Y-54010875D01*
X65376378Y-53972484D01*
X65327516Y-53923622D01*
X65289125Y-53866166D01*
X65262681Y-53802324D01*
X65249200Y-53734551D01*
X65249200Y-53665449D01*
X65262681Y-53597676D01*
X65289125Y-53533834D01*
X65327516Y-53476378D01*
X65376378Y-53427516D01*
X65433834Y-53389125D01*
X65497676Y-53362681D01*
X65565449Y-53349200D01*
X65634551Y-53349200D01*
X65702324Y-53362681D01*
G37*
G36*
X62850800Y-57800800D02*
G01*
X61749200Y-57800800D01*
X61749200Y-56599200D01*
X62850800Y-56599200D01*
X62850800Y-57800800D01*
G37*
G36*
X72090800Y-57740800D02*
G01*
X71289200Y-57740800D01*
X71289200Y-56739200D01*
X72090800Y-56739200D01*
X72090800Y-57740800D01*
G37*
G36*
X119216908Y-56809602D02*
G01*
X119289848Y-56839815D01*
X119289850Y-56839816D01*
X119322895Y-56861896D01*
X119355494Y-56883678D01*
X119411322Y-56939506D01*
X119455185Y-57005152D01*
X119485398Y-57078092D01*
X119500800Y-57155523D01*
X119500800Y-57234477D01*
X119485398Y-57311908D01*
X119469951Y-57349200D01*
X119455184Y-57384850D01*
X119411321Y-57450495D01*
X119355495Y-57506321D01*
X119289850Y-57550184D01*
X119289849Y-57550185D01*
X119289848Y-57550185D01*
X119216908Y-57580398D01*
X119139477Y-57595800D01*
X119060523Y-57595800D01*
X118983092Y-57580398D01*
X118910152Y-57550185D01*
X118910151Y-57550185D01*
X118910150Y-57550184D01*
X118844505Y-57506321D01*
X118788679Y-57450495D01*
X118744816Y-57384850D01*
X118730049Y-57349200D01*
X118714602Y-57311908D01*
X118699200Y-57234477D01*
X118699200Y-57155523D01*
X118714602Y-57078092D01*
X118744815Y-57005152D01*
X118788678Y-56939506D01*
X118844506Y-56883678D01*
X118877105Y-56861896D01*
X118910150Y-56839816D01*
X118910152Y-56839815D01*
X118983092Y-56809602D01*
X119060523Y-56794200D01*
X119139477Y-56794200D01*
X119216908Y-56809602D01*
G37*
G36*
X113333000Y-57500900D02*
G01*
X112063000Y-57500900D01*
X112063000Y-55799100D01*
X113333000Y-55799100D01*
X113333000Y-57500900D01*
G37*
G36*
X114857000Y-57500900D02*
G01*
X113587000Y-57500900D01*
X113587000Y-55799100D01*
X114857000Y-55799100D01*
X114857000Y-57500900D01*
G37*
G36*
X70968800Y-57215800D02*
G01*
X70367200Y-57215800D01*
X70367200Y-56564200D01*
X70968800Y-56564200D01*
X70968800Y-57215800D01*
G37*
G36*
X69952800Y-57215800D02*
G01*
X69351200Y-57215800D01*
X69351200Y-56564200D01*
X69952800Y-56564200D01*
X69952800Y-57215800D01*
G37*
G36*
X118018800Y-56960800D02*
G01*
X116117200Y-56960800D01*
X116117200Y-56159200D01*
X118018800Y-56159200D01*
X118018800Y-56960800D01*
G37*
G36*
X122082800Y-56960800D02*
G01*
X120181200Y-56960800D01*
X120181200Y-56159200D01*
X122082800Y-56159200D01*
X122082800Y-56960800D01*
G37*
G36*
X80162800Y-56145800D02*
G01*
X79561200Y-56145800D01*
X79561200Y-55494200D01*
X80162800Y-55494200D01*
X80162800Y-56145800D01*
G37*
G36*
X81178800Y-56145800D02*
G01*
X80577200Y-56145800D01*
X80577200Y-55494200D01*
X81178800Y-55494200D01*
X81178800Y-56145800D01*
G37*
G36*
X70968800Y-56075800D02*
G01*
X70367200Y-56075800D01*
X70367200Y-55424200D01*
X70968800Y-55424200D01*
X70968800Y-56075800D01*
G37*
G36*
X69952800Y-56075800D02*
G01*
X69351200Y-56075800D01*
X69351200Y-55424200D01*
X69952800Y-55424200D01*
X69952800Y-56075800D01*
G37*
G36*
X65328521Y-54522174D02*
G01*
X65428795Y-54563709D01*
X65428796Y-54563710D01*
X65519042Y-54624010D01*
X65595790Y-54700758D01*
X65595791Y-54700760D01*
X65656091Y-54791005D01*
X65697626Y-54891279D01*
X65718800Y-54997730D01*
X65718800Y-55106270D01*
X65697626Y-55212721D01*
X65656091Y-55312995D01*
X65656090Y-55312996D01*
X65595790Y-55403242D01*
X65519042Y-55479990D01*
X65497775Y-55494200D01*
X65428795Y-55540291D01*
X65328521Y-55581826D01*
X65222070Y-55603000D01*
X65113530Y-55603000D01*
X65007079Y-55581826D01*
X64906805Y-55540291D01*
X64837825Y-55494200D01*
X64816558Y-55479990D01*
X64739810Y-55403242D01*
X64679510Y-55312996D01*
X64679509Y-55312995D01*
X64637974Y-55212721D01*
X64616800Y-55106270D01*
X64616800Y-54997730D01*
X64637974Y-54891279D01*
X64679509Y-54791005D01*
X64739809Y-54700760D01*
X64739810Y-54700758D01*
X64816558Y-54624010D01*
X64906804Y-54563710D01*
X64906805Y-54563709D01*
X65007079Y-54522174D01*
X65113530Y-54501000D01*
X65222070Y-54501000D01*
X65328521Y-54522174D01*
G37*
G36*
X80162800Y-54945800D02*
G01*
X79561200Y-54945800D01*
X79561200Y-54294200D01*
X80162800Y-54294200D01*
X80162800Y-54945800D01*
G37*
G36*
X81178800Y-54945800D02*
G01*
X80577200Y-54945800D01*
X80577200Y-54294200D01*
X81178800Y-54294200D01*
X81178800Y-54945800D01*
G37*
G36*
X69952800Y-54925800D02*
G01*
X69351200Y-54925800D01*
X69351200Y-54274200D01*
X69952800Y-54274200D01*
X69952800Y-54925800D01*
G37*
G36*
X70968800Y-54925800D02*
G01*
X70367200Y-54925800D01*
X70367200Y-54274200D01*
X70968800Y-54274200D01*
X70968800Y-54925800D01*
G37*
G36*
X62850800Y-54800800D02*
G01*
X61749200Y-54800800D01*
X61749200Y-53599200D01*
X62850800Y-53599200D01*
X62850800Y-54800800D01*
G37*
G36*
X72372800Y-53675800D02*
G01*
X71771200Y-53675800D01*
X71771200Y-53024200D01*
X72372800Y-53024200D01*
X72372800Y-53675800D01*
G37*
G36*
X70958800Y-53675800D02*
G01*
X70357200Y-53675800D01*
X70357200Y-53024200D01*
X70958800Y-53024200D01*
X70958800Y-53675800D01*
G37*
G36*
X73388800Y-53675800D02*
G01*
X72787200Y-53675800D01*
X72787200Y-53024200D01*
X73388800Y-53024200D01*
X73388800Y-53675800D01*
G37*
G36*
X69942800Y-53675800D02*
G01*
X69341200Y-53675800D01*
X69341200Y-53024200D01*
X69942800Y-53024200D01*
X69942800Y-53675800D01*
G37*
G36*
X63829771Y-51453909D02*
G01*
X63877579Y-51458617D01*
X64000255Y-51495831D01*
X64000258Y-51495832D01*
X64113313Y-51556261D01*
X64212412Y-51637588D01*
X64293739Y-51736687D01*
X64354168Y-51849742D01*
X64354169Y-51849745D01*
X64391383Y-51972421D01*
X64403948Y-52100000D01*
X64391383Y-52227579D01*
X64354169Y-52350255D01*
X64354168Y-52350258D01*
X64293739Y-52463313D01*
X64212412Y-52562412D01*
X64113313Y-52643739D01*
X64000258Y-52704168D01*
X64000255Y-52704169D01*
X63877579Y-52741383D01*
X63829771Y-52746091D01*
X63781965Y-52750800D01*
X63118035Y-52750800D01*
X63070229Y-52746091D01*
X63022421Y-52741383D01*
X62899745Y-52704169D01*
X62899742Y-52704168D01*
X62786687Y-52643739D01*
X62687588Y-52562412D01*
X62606261Y-52463313D01*
X62545832Y-52350258D01*
X62545831Y-52350255D01*
X62508617Y-52227579D01*
X62496052Y-52100000D01*
X62508617Y-51972421D01*
X62545831Y-51849745D01*
X62545832Y-51849742D01*
X62606261Y-51736687D01*
X62687588Y-51637588D01*
X62786687Y-51556261D01*
X62899742Y-51495832D01*
X62899745Y-51495831D01*
X63022421Y-51458617D01*
X63070229Y-51453909D01*
X63118035Y-51449200D01*
X63781965Y-51449200D01*
X63829771Y-51453909D01*
G37*
G36*
X67299771Y-51453909D02*
G01*
X67347579Y-51458617D01*
X67470255Y-51495831D01*
X67470258Y-51495832D01*
X67583313Y-51556261D01*
X67682412Y-51637588D01*
X67763739Y-51736687D01*
X67824168Y-51849742D01*
X67824169Y-51849745D01*
X67861383Y-51972421D01*
X67873948Y-52100000D01*
X67861383Y-52227579D01*
X67824169Y-52350255D01*
X67824168Y-52350258D01*
X67763739Y-52463313D01*
X67682412Y-52562412D01*
X67583313Y-52643739D01*
X67470258Y-52704168D01*
X67470255Y-52704169D01*
X67347579Y-52741383D01*
X67299771Y-52746091D01*
X67251965Y-52750800D01*
X66588035Y-52750800D01*
X66540229Y-52746091D01*
X66492421Y-52741383D01*
X66369745Y-52704169D01*
X66369742Y-52704168D01*
X66256687Y-52643739D01*
X66157588Y-52562412D01*
X66076261Y-52463313D01*
X66015832Y-52350258D01*
X66015831Y-52350255D01*
X65978617Y-52227579D01*
X65966052Y-52100000D01*
X65978617Y-51972421D01*
X66015831Y-51849745D01*
X66015832Y-51849742D01*
X66076261Y-51736687D01*
X66157588Y-51637588D01*
X66256687Y-51556261D01*
X66369742Y-51495832D01*
X66369745Y-51495831D01*
X66492421Y-51458617D01*
X66540229Y-51453909D01*
X66588035Y-51449200D01*
X67251965Y-51449200D01*
X67299771Y-51453909D01*
G37*
G36*
X75680800Y-52070800D02*
G01*
X73579200Y-52070800D01*
X73579200Y-50269200D01*
X75680800Y-50269200D01*
X75680800Y-52070800D01*
G37*
G36*
X70680800Y-52070800D02*
G01*
X68579200Y-52070800D01*
X68579200Y-50269200D01*
X70680800Y-50269200D01*
X70680800Y-52070800D01*
G37*
G36*
X121843589Y-49697292D02*
G01*
X122005415Y-49764323D01*
X122151049Y-49861632D01*
X122274909Y-49985492D01*
X122372218Y-50131126D01*
X122439249Y-50292952D01*
X122473420Y-50464741D01*
X122473420Y-50639901D01*
X122439249Y-50811690D01*
X122372218Y-50973516D01*
X122274909Y-51119150D01*
X122151049Y-51243010D01*
X122005415Y-51340319D01*
X121843589Y-51407350D01*
X121671800Y-51441521D01*
X121496640Y-51441521D01*
X121324851Y-51407350D01*
X121163025Y-51340319D01*
X121017391Y-51243010D01*
X120893531Y-51119150D01*
X120796222Y-50973516D01*
X120729191Y-50811690D01*
X120695020Y-50639901D01*
X120695020Y-50464741D01*
X120729191Y-50292952D01*
X120796222Y-50131126D01*
X120893531Y-49985492D01*
X121017391Y-49861632D01*
X121163025Y-49764323D01*
X121324851Y-49697292D01*
X121496640Y-49663121D01*
X121671800Y-49663121D01*
X121843589Y-49697292D01*
G37*
G36*
X88823589Y-49697292D02*
G01*
X88985415Y-49764323D01*
X89131049Y-49861632D01*
X89254909Y-49985492D01*
X89352218Y-50131126D01*
X89419249Y-50292952D01*
X89453420Y-50464741D01*
X89453420Y-50639901D01*
X89419249Y-50811690D01*
X89352218Y-50973516D01*
X89254909Y-51119150D01*
X89131049Y-51243010D01*
X88985415Y-51340319D01*
X88823589Y-51407350D01*
X88651800Y-51441521D01*
X88476640Y-51441521D01*
X88304851Y-51407350D01*
X88143025Y-51340319D01*
X87997391Y-51243010D01*
X87873531Y-51119150D01*
X87776222Y-50973516D01*
X87709191Y-50811690D01*
X87675020Y-50639901D01*
X87675020Y-50464741D01*
X87709191Y-50292952D01*
X87776222Y-50131126D01*
X87873531Y-49985492D01*
X87997391Y-49861632D01*
X88143025Y-49764323D01*
X88304851Y-49697292D01*
X88476640Y-49663121D01*
X88651800Y-49663121D01*
X88823589Y-49697292D01*
G37*
G36*
X83743589Y-49697292D02*
G01*
X83905415Y-49764323D01*
X84051049Y-49861632D01*
X84174909Y-49985492D01*
X84272218Y-50131126D01*
X84339249Y-50292952D01*
X84373420Y-50464741D01*
X84373420Y-50639901D01*
X84339249Y-50811690D01*
X84272218Y-50973516D01*
X84174909Y-51119150D01*
X84051049Y-51243010D01*
X83905415Y-51340319D01*
X83743589Y-51407350D01*
X83571800Y-51441521D01*
X83396640Y-51441521D01*
X83224851Y-51407350D01*
X83063025Y-51340319D01*
X82917391Y-51243010D01*
X82793531Y-51119150D01*
X82696222Y-50973516D01*
X82629191Y-50811690D01*
X82595020Y-50639901D01*
X82595020Y-50464741D01*
X82629191Y-50292952D01*
X82696222Y-50131126D01*
X82793531Y-49985492D01*
X82917391Y-49861632D01*
X83063025Y-49764323D01*
X83224851Y-49697292D01*
X83396640Y-49663121D01*
X83571800Y-49663121D01*
X83743589Y-49697292D01*
G37*
G36*
X96443589Y-49697292D02*
G01*
X96605415Y-49764323D01*
X96751049Y-49861632D01*
X96874909Y-49985492D01*
X96972218Y-50131126D01*
X97039249Y-50292952D01*
X97073420Y-50464741D01*
X97073420Y-50639901D01*
X97039249Y-50811690D01*
X96972218Y-50973516D01*
X96874909Y-51119150D01*
X96751049Y-51243010D01*
X96605415Y-51340319D01*
X96443589Y-51407350D01*
X96271800Y-51441521D01*
X96096640Y-51441521D01*
X95924851Y-51407350D01*
X95763025Y-51340319D01*
X95617391Y-51243010D01*
X95493531Y-51119150D01*
X95396222Y-50973516D01*
X95329191Y-50811690D01*
X95295020Y-50639901D01*
X95295020Y-50464741D01*
X95329191Y-50292952D01*
X95396222Y-50131126D01*
X95493531Y-49985492D01*
X95617391Y-49861632D01*
X95763025Y-49764323D01*
X95924851Y-49697292D01*
X96096640Y-49663121D01*
X96271800Y-49663121D01*
X96443589Y-49697292D01*
G37*
G36*
X93903589Y-49697292D02*
G01*
X94065415Y-49764323D01*
X94211049Y-49861632D01*
X94334909Y-49985492D01*
X94432218Y-50131126D01*
X94499249Y-50292952D01*
X94533420Y-50464741D01*
X94533420Y-50639901D01*
X94499249Y-50811690D01*
X94432218Y-50973516D01*
X94334909Y-51119150D01*
X94211049Y-51243010D01*
X94065415Y-51340319D01*
X93903589Y-51407350D01*
X93731800Y-51441521D01*
X93556640Y-51441521D01*
X93384851Y-51407350D01*
X93223025Y-51340319D01*
X93077391Y-51243010D01*
X92953531Y-51119150D01*
X92856222Y-50973516D01*
X92789191Y-50811690D01*
X92755020Y-50639901D01*
X92755020Y-50464741D01*
X92789191Y-50292952D01*
X92856222Y-50131126D01*
X92953531Y-49985492D01*
X93077391Y-49861632D01*
X93223025Y-49764323D01*
X93384851Y-49697292D01*
X93556640Y-49663121D01*
X93731800Y-49663121D01*
X93903589Y-49697292D01*
G37*
G36*
X91363589Y-49697292D02*
G01*
X91525415Y-49764323D01*
X91671049Y-49861632D01*
X91794909Y-49985492D01*
X91892218Y-50131126D01*
X91959249Y-50292952D01*
X91993420Y-50464741D01*
X91993420Y-50639901D01*
X91959249Y-50811690D01*
X91892218Y-50973516D01*
X91794909Y-51119150D01*
X91671049Y-51243010D01*
X91525415Y-51340319D01*
X91363589Y-51407350D01*
X91191800Y-51441521D01*
X91016640Y-51441521D01*
X90844851Y-51407350D01*
X90683025Y-51340319D01*
X90537391Y-51243010D01*
X90413531Y-51119150D01*
X90316222Y-50973516D01*
X90249191Y-50811690D01*
X90215020Y-50639901D01*
X90215020Y-50464741D01*
X90249191Y-50292952D01*
X90316222Y-50131126D01*
X90413531Y-49985492D01*
X90537391Y-49861632D01*
X90683025Y-49764323D01*
X90844851Y-49697292D01*
X91016640Y-49663121D01*
X91191800Y-49663121D01*
X91363589Y-49697292D01*
G37*
G36*
X86283589Y-49697292D02*
G01*
X86445415Y-49764323D01*
X86591049Y-49861632D01*
X86714909Y-49985492D01*
X86812218Y-50131126D01*
X86879249Y-50292952D01*
X86913420Y-50464741D01*
X86913420Y-50639901D01*
X86879249Y-50811690D01*
X86812218Y-50973516D01*
X86714909Y-51119150D01*
X86591049Y-51243010D01*
X86445415Y-51340319D01*
X86283589Y-51407350D01*
X86111800Y-51441521D01*
X85936640Y-51441521D01*
X85764851Y-51407350D01*
X85603025Y-51340319D01*
X85457391Y-51243010D01*
X85333531Y-51119150D01*
X85236222Y-50973516D01*
X85169191Y-50811690D01*
X85135020Y-50639901D01*
X85135020Y-50464741D01*
X85169191Y-50292952D01*
X85236222Y-50131126D01*
X85333531Y-49985492D01*
X85457391Y-49861632D01*
X85603025Y-49764323D01*
X85764851Y-49697292D01*
X85936640Y-49663121D01*
X86111800Y-49663121D01*
X86283589Y-49697292D01*
G37*
G36*
X98983589Y-49697292D02*
G01*
X99145415Y-49764323D01*
X99291049Y-49861632D01*
X99414909Y-49985492D01*
X99512218Y-50131126D01*
X99579249Y-50292952D01*
X99613420Y-50464741D01*
X99613420Y-50639901D01*
X99579249Y-50811690D01*
X99512218Y-50973516D01*
X99414909Y-51119150D01*
X99291049Y-51243010D01*
X99145415Y-51340319D01*
X98983589Y-51407350D01*
X98811800Y-51441521D01*
X98636640Y-51441521D01*
X98464851Y-51407350D01*
X98303025Y-51340319D01*
X98157391Y-51243010D01*
X98033531Y-51119150D01*
X97936222Y-50973516D01*
X97869191Y-50811690D01*
X97835020Y-50639901D01*
X97835020Y-50464741D01*
X97869191Y-50292952D01*
X97936222Y-50131126D01*
X98033531Y-49985492D01*
X98157391Y-49861632D01*
X98303025Y-49764323D01*
X98464851Y-49697292D01*
X98636640Y-49663121D01*
X98811800Y-49663121D01*
X98983589Y-49697292D01*
G37*
G36*
X102150880Y-51441521D02*
G01*
X100372480Y-51441521D01*
X100372480Y-49663121D01*
X102150880Y-49663121D01*
X102150880Y-51441521D01*
G37*
G36*
X106603589Y-49697292D02*
G01*
X106765415Y-49764323D01*
X106911049Y-49861632D01*
X107034909Y-49985492D01*
X107132218Y-50131126D01*
X107199249Y-50292952D01*
X107233420Y-50464741D01*
X107233420Y-50639901D01*
X107199249Y-50811690D01*
X107132218Y-50973516D01*
X107034909Y-51119150D01*
X106911049Y-51243010D01*
X106765415Y-51340319D01*
X106603589Y-51407350D01*
X106431800Y-51441521D01*
X106256640Y-51441521D01*
X106084851Y-51407350D01*
X105923025Y-51340319D01*
X105777391Y-51243010D01*
X105653531Y-51119150D01*
X105556222Y-50973516D01*
X105489191Y-50811690D01*
X105455020Y-50639901D01*
X105455020Y-50464741D01*
X105489191Y-50292952D01*
X105556222Y-50131126D01*
X105653531Y-49985492D01*
X105777391Y-49861632D01*
X105923025Y-49764323D01*
X106084851Y-49697292D01*
X106256640Y-49663121D01*
X106431800Y-49663121D01*
X106603589Y-49697292D01*
G37*
G36*
X125013420Y-51441521D02*
G01*
X123235020Y-51441521D01*
X123235020Y-49663121D01*
X125013420Y-49663121D01*
X125013420Y-51441521D01*
G37*
G36*
X119303589Y-49697292D02*
G01*
X119465415Y-49764323D01*
X119611049Y-49861632D01*
X119734909Y-49985492D01*
X119832218Y-50131126D01*
X119899249Y-50292952D01*
X119933420Y-50464741D01*
X119933420Y-50639901D01*
X119899249Y-50811690D01*
X119832218Y-50973516D01*
X119734909Y-51119150D01*
X119611049Y-51243010D01*
X119465415Y-51340319D01*
X119303589Y-51407350D01*
X119131800Y-51441521D01*
X118956640Y-51441521D01*
X118784851Y-51407350D01*
X118623025Y-51340319D01*
X118477391Y-51243010D01*
X118353531Y-51119150D01*
X118256222Y-50973516D01*
X118189191Y-50811690D01*
X118155020Y-50639901D01*
X118155020Y-50464741D01*
X118189191Y-50292952D01*
X118256222Y-50131126D01*
X118353531Y-49985492D01*
X118477391Y-49861632D01*
X118623025Y-49764323D01*
X118784851Y-49697292D01*
X118956640Y-49663121D01*
X119131800Y-49663121D01*
X119303589Y-49697292D01*
G37*
G36*
X116763589Y-49697292D02*
G01*
X116925415Y-49764323D01*
X117071049Y-49861632D01*
X117194909Y-49985492D01*
X117292218Y-50131126D01*
X117359249Y-50292952D01*
X117393420Y-50464741D01*
X117393420Y-50639901D01*
X117359249Y-50811690D01*
X117292218Y-50973516D01*
X117194909Y-51119150D01*
X117071049Y-51243010D01*
X116925415Y-51340319D01*
X116763589Y-51407350D01*
X116591800Y-51441521D01*
X116416640Y-51441521D01*
X116244851Y-51407350D01*
X116083025Y-51340319D01*
X115937391Y-51243010D01*
X115813531Y-51119150D01*
X115716222Y-50973516D01*
X115649191Y-50811690D01*
X115615020Y-50639901D01*
X115615020Y-50464741D01*
X115649191Y-50292952D01*
X115716222Y-50131126D01*
X115813531Y-49985492D01*
X115937391Y-49861632D01*
X116083025Y-49764323D01*
X116244851Y-49697292D01*
X116416640Y-49663121D01*
X116591800Y-49663121D01*
X116763589Y-49697292D01*
G37*
G36*
X114223589Y-49697292D02*
G01*
X114385415Y-49764323D01*
X114531049Y-49861632D01*
X114654909Y-49985492D01*
X114752218Y-50131126D01*
X114819249Y-50292952D01*
X114853420Y-50464741D01*
X114853420Y-50639901D01*
X114819249Y-50811690D01*
X114752218Y-50973516D01*
X114654909Y-51119150D01*
X114531049Y-51243010D01*
X114385415Y-51340319D01*
X114223589Y-51407350D01*
X114051800Y-51441521D01*
X113876640Y-51441521D01*
X113704851Y-51407350D01*
X113543025Y-51340319D01*
X113397391Y-51243010D01*
X113273531Y-51119150D01*
X113176222Y-50973516D01*
X113109191Y-50811690D01*
X113075020Y-50639901D01*
X113075020Y-50464741D01*
X113109191Y-50292952D01*
X113176222Y-50131126D01*
X113273531Y-49985492D01*
X113397391Y-49861632D01*
X113543025Y-49764323D01*
X113704851Y-49697292D01*
X113876640Y-49663121D01*
X114051800Y-49663121D01*
X114223589Y-49697292D01*
G37*
G36*
X109143589Y-49697292D02*
G01*
X109305415Y-49764323D01*
X109451049Y-49861632D01*
X109574909Y-49985492D01*
X109672218Y-50131126D01*
X109739249Y-50292952D01*
X109773420Y-50464741D01*
X109773420Y-50639901D01*
X109739249Y-50811690D01*
X109672218Y-50973516D01*
X109574909Y-51119150D01*
X109451049Y-51243010D01*
X109305415Y-51340319D01*
X109143589Y-51407350D01*
X108971800Y-51441521D01*
X108796640Y-51441521D01*
X108624851Y-51407350D01*
X108463025Y-51340319D01*
X108317391Y-51243010D01*
X108193531Y-51119150D01*
X108096222Y-50973516D01*
X108029191Y-50811690D01*
X107995020Y-50639901D01*
X107995020Y-50464741D01*
X108029191Y-50292952D01*
X108096222Y-50131126D01*
X108193531Y-49985492D01*
X108317391Y-49861632D01*
X108463025Y-49764323D01*
X108624851Y-49697292D01*
X108796640Y-49663121D01*
X108971800Y-49663121D01*
X109143589Y-49697292D01*
G37*
G36*
X111683589Y-49697292D02*
G01*
X111845415Y-49764323D01*
X111991049Y-49861632D01*
X112114909Y-49985492D01*
X112212218Y-50131126D01*
X112279249Y-50292952D01*
X112313420Y-50464741D01*
X112313420Y-50639901D01*
X112279249Y-50811690D01*
X112212218Y-50973516D01*
X112114909Y-51119150D01*
X111991049Y-51243010D01*
X111845415Y-51340319D01*
X111683589Y-51407350D01*
X111511800Y-51441521D01*
X111336640Y-51441521D01*
X111164851Y-51407350D01*
X111003025Y-51340319D01*
X110857391Y-51243010D01*
X110733531Y-51119150D01*
X110636222Y-50973516D01*
X110569191Y-50811690D01*
X110535020Y-50639901D01*
X110535020Y-50464741D01*
X110569191Y-50292952D01*
X110636222Y-50131126D01*
X110733531Y-49985492D01*
X110857391Y-49861632D01*
X111003025Y-49764323D01*
X111164851Y-49697292D01*
X111336640Y-49663121D01*
X111511800Y-49663121D01*
X111683589Y-49697292D01*
G37*
G36*
X80161652Y-46376689D02*
G01*
X80471214Y-46504914D01*
X80563660Y-46566684D01*
X80749814Y-46691068D01*
X80986743Y-46927997D01*
X81035388Y-47000800D01*
X81172897Y-47206597D01*
X81301122Y-47516159D01*
X81366490Y-47844786D01*
X81366490Y-48179856D01*
X81301122Y-48508483D01*
X81172897Y-48818045D01*
X81172896Y-48818046D01*
X80986743Y-49096645D01*
X80749814Y-49333574D01*
X80563660Y-49457958D01*
X80471214Y-49519728D01*
X80161652Y-49647953D01*
X79833025Y-49713321D01*
X79497955Y-49713321D01*
X79169328Y-49647953D01*
X78859766Y-49519728D01*
X78767320Y-49457958D01*
X78581166Y-49333574D01*
X78344237Y-49096645D01*
X78158084Y-48818046D01*
X78158083Y-48818045D01*
X78029858Y-48508483D01*
X77964490Y-48179856D01*
X77964490Y-47844786D01*
X78029858Y-47516159D01*
X78158083Y-47206597D01*
X78295592Y-47000800D01*
X78344237Y-46927997D01*
X78581166Y-46691068D01*
X78767320Y-46566684D01*
X78859766Y-46504914D01*
X79169328Y-46376689D01*
X79497955Y-46311321D01*
X79833025Y-46311321D01*
X80161652Y-46376689D01*
G37*
G36*
X66231493Y-48816524D02*
G01*
X66313534Y-48850506D01*
X66387368Y-48899841D01*
X66450159Y-48962632D01*
X66499494Y-49036466D01*
X66533476Y-49118507D01*
X66550800Y-49205600D01*
X66550800Y-49294400D01*
X66533476Y-49381493D01*
X66499494Y-49463534D01*
X66450159Y-49537368D01*
X66387368Y-49600159D01*
X66313534Y-49649494D01*
X66231493Y-49683476D01*
X66144400Y-49700800D01*
X66055600Y-49700800D01*
X65968507Y-49683476D01*
X65886466Y-49649494D01*
X65812632Y-49600159D01*
X65749841Y-49537368D01*
X65700506Y-49463534D01*
X65666524Y-49381493D01*
X65649200Y-49294400D01*
X65649200Y-49205600D01*
X65666524Y-49118507D01*
X65700506Y-49036466D01*
X65749841Y-48962632D01*
X65812632Y-48899841D01*
X65886466Y-48850506D01*
X65968507Y-48816524D01*
X66055600Y-48799200D01*
X66144400Y-48799200D01*
X66231493Y-48816524D01*
G37*
G36*
X63864800Y-49347800D02*
G01*
X62239200Y-49347800D01*
X62239200Y-48230200D01*
X63864800Y-48230200D01*
X63864800Y-49347800D01*
G37*
G36*
X69960800Y-49347800D02*
G01*
X68335200Y-49347800D01*
X68335200Y-48230200D01*
X69960800Y-48230200D01*
X69960800Y-49347800D01*
G37*
G36*
X74208800Y-49115800D02*
G01*
X73607200Y-49115800D01*
X73607200Y-48464200D01*
X74208800Y-48464200D01*
X74208800Y-49115800D01*
G37*
G36*
X71122800Y-49115800D02*
G01*
X70521200Y-49115800D01*
X70521200Y-48464200D01*
X71122800Y-48464200D01*
X71122800Y-49115800D01*
G37*
G36*
X72138800Y-49115800D02*
G01*
X71537200Y-49115800D01*
X71537200Y-48464200D01*
X72138800Y-48464200D01*
X72138800Y-49115800D01*
G37*
G36*
X75402800Y-49115800D02*
G01*
X74801200Y-49115800D01*
X74801200Y-48464200D01*
X75402800Y-48464200D01*
X75402800Y-49115800D01*
G37*
G36*
X73192800Y-49115800D02*
G01*
X72591200Y-49115800D01*
X72591200Y-48464200D01*
X73192800Y-48464200D01*
X73192800Y-49115800D01*
G37*
G36*
X76418800Y-49115800D02*
G01*
X75817200Y-49115800D01*
X75817200Y-48464200D01*
X76418800Y-48464200D01*
X76418800Y-49115800D01*
G37*
G36*
X87299589Y-47157292D02*
G01*
X87461415Y-47224323D01*
X87607049Y-47321632D01*
X87730909Y-47445492D01*
X87828218Y-47591126D01*
X87895249Y-47752952D01*
X87929420Y-47924741D01*
X87929420Y-48099901D01*
X87895249Y-48271690D01*
X87828218Y-48433516D01*
X87730909Y-48579150D01*
X87607049Y-48703010D01*
X87461415Y-48800319D01*
X87299589Y-48867350D01*
X87127800Y-48901521D01*
X86952640Y-48901521D01*
X86780851Y-48867350D01*
X86619025Y-48800319D01*
X86473391Y-48703010D01*
X86349531Y-48579150D01*
X86252222Y-48433516D01*
X86185191Y-48271690D01*
X86151020Y-48099901D01*
X86151020Y-47924741D01*
X86185191Y-47752952D01*
X86252222Y-47591126D01*
X86349531Y-47445492D01*
X86473391Y-47321632D01*
X86619025Y-47224323D01*
X86780851Y-47157292D01*
X86952640Y-47123121D01*
X87127800Y-47123121D01*
X87299589Y-47157292D01*
G37*
G36*
X109143589Y-47157292D02*
G01*
X109305415Y-47224323D01*
X109451049Y-47321632D01*
X109574909Y-47445492D01*
X109672218Y-47591126D01*
X109739249Y-47752952D01*
X109773420Y-47924741D01*
X109773420Y-48099901D01*
X109739249Y-48271690D01*
X109672218Y-48433516D01*
X109574909Y-48579150D01*
X109451049Y-48703010D01*
X109305415Y-48800319D01*
X109143589Y-48867350D01*
X108971800Y-48901521D01*
X108796640Y-48901521D01*
X108624851Y-48867350D01*
X108463025Y-48800319D01*
X108317391Y-48703010D01*
X108193531Y-48579150D01*
X108096222Y-48433516D01*
X108029191Y-48271690D01*
X107995020Y-48099901D01*
X107995020Y-47924741D01*
X108029191Y-47752952D01*
X108096222Y-47591126D01*
X108193531Y-47445492D01*
X108317391Y-47321632D01*
X108463025Y-47224323D01*
X108624851Y-47157292D01*
X108796640Y-47123121D01*
X108971800Y-47123121D01*
X109143589Y-47157292D01*
G37*
G36*
X111683589Y-47157292D02*
G01*
X111845415Y-47224323D01*
X111991049Y-47321632D01*
X112114909Y-47445492D01*
X112212218Y-47591126D01*
X112279249Y-47752952D01*
X112313420Y-47924741D01*
X112313420Y-48099901D01*
X112279249Y-48271690D01*
X112212218Y-48433516D01*
X112114909Y-48579150D01*
X111991049Y-48703010D01*
X111845415Y-48800319D01*
X111683589Y-48867350D01*
X111511800Y-48901521D01*
X111336640Y-48901521D01*
X111164851Y-48867350D01*
X111003025Y-48800319D01*
X110857391Y-48703010D01*
X110733531Y-48579150D01*
X110636222Y-48433516D01*
X110569191Y-48271690D01*
X110535020Y-48099901D01*
X110535020Y-47924741D01*
X110569191Y-47752952D01*
X110636222Y-47591126D01*
X110733531Y-47445492D01*
X110857391Y-47321632D01*
X111003025Y-47224323D01*
X111164851Y-47157292D01*
X111336640Y-47123121D01*
X111511800Y-47123121D01*
X111683589Y-47157292D01*
G37*
G36*
X116763589Y-47157292D02*
G01*
X116925415Y-47224323D01*
X117071049Y-47321632D01*
X117194909Y-47445492D01*
X117292218Y-47591126D01*
X117359249Y-47752952D01*
X117393420Y-47924741D01*
X117393420Y-48099901D01*
X117359249Y-48271690D01*
X117292218Y-48433516D01*
X117194909Y-48579150D01*
X117071049Y-48703010D01*
X116925415Y-48800319D01*
X116763589Y-48867350D01*
X116591800Y-48901521D01*
X116416640Y-48901521D01*
X116244851Y-48867350D01*
X116083025Y-48800319D01*
X115937391Y-48703010D01*
X115813531Y-48579150D01*
X115716222Y-48433516D01*
X115649191Y-48271690D01*
X115615020Y-48099901D01*
X115615020Y-47924741D01*
X115649191Y-47752952D01*
X115716222Y-47591126D01*
X115813531Y-47445492D01*
X115937391Y-47321632D01*
X116083025Y-47224323D01*
X116244851Y-47157292D01*
X116416640Y-47123121D01*
X116591800Y-47123121D01*
X116763589Y-47157292D01*
G37*
G36*
X125013420Y-48901521D02*
G01*
X123235020Y-48901521D01*
X123235020Y-47123121D01*
X125013420Y-47123121D01*
X125013420Y-48901521D01*
G37*
G36*
X121843589Y-47157292D02*
G01*
X122005415Y-47224323D01*
X122151049Y-47321632D01*
X122274909Y-47445492D01*
X122372218Y-47591126D01*
X122439249Y-47752952D01*
X122473420Y-47924741D01*
X122473420Y-48099901D01*
X122439249Y-48271690D01*
X122372218Y-48433516D01*
X122274909Y-48579150D01*
X122151049Y-48703010D01*
X122005415Y-48800319D01*
X121843589Y-48867350D01*
X121671800Y-48901521D01*
X121496640Y-48901521D01*
X121324851Y-48867350D01*
X121163025Y-48800319D01*
X121017391Y-48703010D01*
X120893531Y-48579150D01*
X120796222Y-48433516D01*
X120729191Y-48271690D01*
X120695020Y-48099901D01*
X120695020Y-47924741D01*
X120729191Y-47752952D01*
X120796222Y-47591126D01*
X120893531Y-47445492D01*
X121017391Y-47321632D01*
X121163025Y-47224323D01*
X121324851Y-47157292D01*
X121496640Y-47123121D01*
X121671800Y-47123121D01*
X121843589Y-47157292D01*
G37*
G36*
X119303589Y-47157292D02*
G01*
X119465415Y-47224323D01*
X119611049Y-47321632D01*
X119734909Y-47445492D01*
X119832218Y-47591126D01*
X119899249Y-47752952D01*
X119933420Y-47924741D01*
X119933420Y-48099901D01*
X119899249Y-48271690D01*
X119832218Y-48433516D01*
X119734909Y-48579150D01*
X119611049Y-48703010D01*
X119465415Y-48800319D01*
X119303589Y-48867350D01*
X119131800Y-48901521D01*
X118956640Y-48901521D01*
X118784851Y-48867350D01*
X118623025Y-48800319D01*
X118477391Y-48703010D01*
X118353531Y-48579150D01*
X118256222Y-48433516D01*
X118189191Y-48271690D01*
X118155020Y-48099901D01*
X118155020Y-47924741D01*
X118189191Y-47752952D01*
X118256222Y-47591126D01*
X118353531Y-47445492D01*
X118477391Y-47321632D01*
X118623025Y-47224323D01*
X118784851Y-47157292D01*
X118956640Y-47123121D01*
X119131800Y-47123121D01*
X119303589Y-47157292D01*
G37*
G36*
X92379589Y-47157292D02*
G01*
X92541415Y-47224323D01*
X92687049Y-47321632D01*
X92810909Y-47445492D01*
X92908218Y-47591126D01*
X92975249Y-47752952D01*
X93009420Y-47924741D01*
X93009420Y-48099901D01*
X92975249Y-48271690D01*
X92908218Y-48433516D01*
X92810909Y-48579150D01*
X92687049Y-48703010D01*
X92541415Y-48800319D01*
X92379589Y-48867350D01*
X92207800Y-48901521D01*
X92032640Y-48901521D01*
X91860851Y-48867350D01*
X91699025Y-48800319D01*
X91553391Y-48703010D01*
X91429531Y-48579150D01*
X91332222Y-48433516D01*
X91265191Y-48271690D01*
X91231020Y-48099901D01*
X91231020Y-47924741D01*
X91265191Y-47752952D01*
X91332222Y-47591126D01*
X91429531Y-47445492D01*
X91553391Y-47321632D01*
X91699025Y-47224323D01*
X91860851Y-47157292D01*
X92032640Y-47123121D01*
X92207800Y-47123121D01*
X92379589Y-47157292D01*
G37*
G36*
X84759589Y-47157292D02*
G01*
X84921415Y-47224323D01*
X85067049Y-47321632D01*
X85190909Y-47445492D01*
X85288218Y-47591126D01*
X85355249Y-47752952D01*
X85389420Y-47924741D01*
X85389420Y-48099901D01*
X85355249Y-48271690D01*
X85288218Y-48433516D01*
X85190909Y-48579150D01*
X85067049Y-48703010D01*
X84921415Y-48800319D01*
X84759589Y-48867350D01*
X84587800Y-48901521D01*
X84412640Y-48901521D01*
X84240851Y-48867350D01*
X84079025Y-48800319D01*
X83933391Y-48703010D01*
X83809531Y-48579150D01*
X83712222Y-48433516D01*
X83645191Y-48271690D01*
X83611020Y-48099901D01*
X83611020Y-47924741D01*
X83645191Y-47752952D01*
X83712222Y-47591126D01*
X83809531Y-47445492D01*
X83933391Y-47321632D01*
X84079025Y-47224323D01*
X84240851Y-47157292D01*
X84412640Y-47123121D01*
X84587800Y-47123121D01*
X84759589Y-47157292D01*
G37*
G36*
X89839589Y-47157292D02*
G01*
X90001415Y-47224323D01*
X90147049Y-47321632D01*
X90270909Y-47445492D01*
X90368218Y-47591126D01*
X90435249Y-47752952D01*
X90469420Y-47924741D01*
X90469420Y-48099901D01*
X90435249Y-48271690D01*
X90368218Y-48433516D01*
X90270909Y-48579150D01*
X90147049Y-48703010D01*
X90001415Y-48800319D01*
X89839589Y-48867350D01*
X89667800Y-48901521D01*
X89492640Y-48901521D01*
X89320851Y-48867350D01*
X89159025Y-48800319D01*
X89013391Y-48703010D01*
X88889531Y-48579150D01*
X88792222Y-48433516D01*
X88725191Y-48271690D01*
X88691020Y-48099901D01*
X88691020Y-47924741D01*
X88725191Y-47752952D01*
X88792222Y-47591126D01*
X88889531Y-47445492D01*
X89013391Y-47321632D01*
X89159025Y-47224323D01*
X89320851Y-47157292D01*
X89492640Y-47123121D01*
X89667800Y-47123121D01*
X89839589Y-47157292D01*
G37*
G36*
X114223589Y-47157292D02*
G01*
X114385415Y-47224323D01*
X114531049Y-47321632D01*
X114654909Y-47445492D01*
X114752218Y-47591126D01*
X114819249Y-47752952D01*
X114853420Y-47924741D01*
X114853420Y-48099901D01*
X114819249Y-48271690D01*
X114752218Y-48433516D01*
X114654909Y-48579150D01*
X114531049Y-48703010D01*
X114385415Y-48800319D01*
X114223589Y-48867350D01*
X114051800Y-48901521D01*
X113876640Y-48901521D01*
X113704851Y-48867350D01*
X113543025Y-48800319D01*
X113397391Y-48703010D01*
X113273531Y-48579150D01*
X113176222Y-48433516D01*
X113109191Y-48271690D01*
X113075020Y-48099901D01*
X113075020Y-47924741D01*
X113109191Y-47752952D01*
X113176222Y-47591126D01*
X113273531Y-47445492D01*
X113397391Y-47321632D01*
X113543025Y-47224323D01*
X113704851Y-47157292D01*
X113876640Y-47123121D01*
X114051800Y-47123121D01*
X114223589Y-47157292D01*
G37*
G36*
X103166880Y-48901521D02*
G01*
X101388480Y-48901521D01*
X101388480Y-47123121D01*
X103166880Y-47123121D01*
X103166880Y-48901521D01*
G37*
G36*
X99999589Y-47157292D02*
G01*
X100161415Y-47224323D01*
X100307049Y-47321632D01*
X100430909Y-47445492D01*
X100528218Y-47591126D01*
X100595249Y-47752952D01*
X100629420Y-47924741D01*
X100629420Y-48099901D01*
X100595249Y-48271690D01*
X100528218Y-48433516D01*
X100430909Y-48579150D01*
X100307049Y-48703010D01*
X100161415Y-48800319D01*
X99999589Y-48867350D01*
X99827800Y-48901521D01*
X99652640Y-48901521D01*
X99480851Y-48867350D01*
X99319025Y-48800319D01*
X99173391Y-48703010D01*
X99049531Y-48579150D01*
X98952222Y-48433516D01*
X98885191Y-48271690D01*
X98851020Y-48099901D01*
X98851020Y-47924741D01*
X98885191Y-47752952D01*
X98952222Y-47591126D01*
X99049531Y-47445492D01*
X99173391Y-47321632D01*
X99319025Y-47224323D01*
X99480851Y-47157292D01*
X99652640Y-47123121D01*
X99827800Y-47123121D01*
X99999589Y-47157292D01*
G37*
G36*
X106603589Y-47157292D02*
G01*
X106765415Y-47224323D01*
X106911049Y-47321632D01*
X107034909Y-47445492D01*
X107132218Y-47591126D01*
X107199249Y-47752952D01*
X107233420Y-47924741D01*
X107233420Y-48099901D01*
X107199249Y-48271690D01*
X107132218Y-48433516D01*
X107034909Y-48579150D01*
X106911049Y-48703010D01*
X106765415Y-48800319D01*
X106603589Y-48867350D01*
X106431800Y-48901521D01*
X106256640Y-48901521D01*
X106084851Y-48867350D01*
X105923025Y-48800319D01*
X105777391Y-48703010D01*
X105653531Y-48579150D01*
X105556222Y-48433516D01*
X105489191Y-48271690D01*
X105455020Y-48099901D01*
X105455020Y-47924741D01*
X105489191Y-47752952D01*
X105556222Y-47591126D01*
X105653531Y-47445492D01*
X105777391Y-47321632D01*
X105923025Y-47224323D01*
X106084851Y-47157292D01*
X106256640Y-47123121D01*
X106431800Y-47123121D01*
X106603589Y-47157292D01*
G37*
G36*
X97459589Y-47157292D02*
G01*
X97621415Y-47224323D01*
X97767049Y-47321632D01*
X97890909Y-47445492D01*
X97988218Y-47591126D01*
X98055249Y-47752952D01*
X98089420Y-47924741D01*
X98089420Y-48099901D01*
X98055249Y-48271690D01*
X97988218Y-48433516D01*
X97890909Y-48579150D01*
X97767049Y-48703010D01*
X97621415Y-48800319D01*
X97459589Y-48867350D01*
X97287800Y-48901521D01*
X97112640Y-48901521D01*
X96940851Y-48867350D01*
X96779025Y-48800319D01*
X96633391Y-48703010D01*
X96509531Y-48579150D01*
X96412222Y-48433516D01*
X96345191Y-48271690D01*
X96311020Y-48099901D01*
X96311020Y-47924741D01*
X96345191Y-47752952D01*
X96412222Y-47591126D01*
X96509531Y-47445492D01*
X96633391Y-47321632D01*
X96779025Y-47224323D01*
X96940851Y-47157292D01*
X97112640Y-47123121D01*
X97287800Y-47123121D01*
X97459589Y-47157292D01*
G37*
G36*
X94919589Y-47157292D02*
G01*
X95081415Y-47224323D01*
X95227049Y-47321632D01*
X95350909Y-47445492D01*
X95448218Y-47591126D01*
X95515249Y-47752952D01*
X95549420Y-47924741D01*
X95549420Y-48099901D01*
X95515249Y-48271690D01*
X95448218Y-48433516D01*
X95350909Y-48579150D01*
X95227049Y-48703010D01*
X95081415Y-48800319D01*
X94919589Y-48867350D01*
X94747800Y-48901521D01*
X94572640Y-48901521D01*
X94400851Y-48867350D01*
X94239025Y-48800319D01*
X94093391Y-48703010D01*
X93969531Y-48579150D01*
X93872222Y-48433516D01*
X93805191Y-48271690D01*
X93771020Y-48099901D01*
X93771020Y-47924741D01*
X93805191Y-47752952D01*
X93872222Y-47591126D01*
X93969531Y-47445492D01*
X94093391Y-47321632D01*
X94239025Y-47224323D01*
X94400851Y-47157292D01*
X94572640Y-47123121D01*
X94747800Y-47123121D01*
X94919589Y-47157292D01*
G37*
G36*
X69960800Y-47569800D02*
G01*
X68335200Y-47569800D01*
X68335200Y-46452200D01*
X69960800Y-46452200D01*
X69960800Y-47569800D01*
G37*
G36*
X63864800Y-47569800D02*
G01*
X62239200Y-47569800D01*
X62239200Y-46452200D01*
X63864800Y-46452200D01*
X63864800Y-47569800D01*
G37*
G36*
X76572800Y-47440800D02*
G01*
X75671200Y-47440800D01*
X75671200Y-46539200D01*
X76572800Y-46539200D01*
X76572800Y-47440800D01*
G37*
G36*
X71738800Y-47440800D02*
G01*
X70837200Y-47440800D01*
X70837200Y-46539200D01*
X71738800Y-46539200D01*
X71738800Y-47440800D01*
G37*
G36*
X73262800Y-47440800D02*
G01*
X72361200Y-47440800D01*
X72361200Y-46539200D01*
X73262800Y-46539200D01*
X73262800Y-47440800D01*
G37*
G36*
X75048800Y-47440800D02*
G01*
X74147200Y-47440800D01*
X74147200Y-46539200D01*
X75048800Y-46539200D01*
X75048800Y-47440800D01*
G37*
G36*
X66231493Y-46116524D02*
G01*
X66313534Y-46150506D01*
X66387368Y-46199841D01*
X66450159Y-46262632D01*
X66499494Y-46336466D01*
X66533476Y-46418507D01*
X66550800Y-46505600D01*
X66550800Y-46594400D01*
X66533476Y-46681493D01*
X66499494Y-46763534D01*
X66450159Y-46837368D01*
X66387368Y-46900159D01*
X66313534Y-46949494D01*
X66231493Y-46983476D01*
X66144400Y-47000800D01*
X66055600Y-47000800D01*
X65968507Y-46983476D01*
X65886466Y-46949494D01*
X65812632Y-46900159D01*
X65749841Y-46837368D01*
X65700506Y-46763534D01*
X65666524Y-46681493D01*
X65649200Y-46594400D01*
X65649200Y-46505600D01*
X65666524Y-46418507D01*
X65700506Y-46336466D01*
X65749841Y-46262632D01*
X65812632Y-46199841D01*
X65886466Y-46150506D01*
X65968507Y-46116524D01*
X66055600Y-46099200D01*
X66144400Y-46099200D01*
X66231493Y-46116524D01*
G37*
M02*
