G04 #@! TF.GenerationSoftware,KiCad,Pcbnew,5.1.5+dfsg1-2build2*
G04 #@! TF.CreationDate,2020-06-04T11:32:48+03:00*
G04 #@! TF.ProjectId,OLIMEXINO-STM32F3_RevB,4f4c494d-4558-4494-9e4f-2d53544d3332,rev?*
G04 #@! TF.SameCoordinates,Original*
G04 #@! TF.FileFunction,Paste,Bot*
G04 #@! TF.FilePolarity,Positive*
%FSLAX46Y46*%
G04 Gerber Fmt 4.6, Leading zero omitted, Abs format (unit mm)*
G04 Created by KiCad (PCBNEW 5.1.5+dfsg1-2build2) date 2020-06-04 11:32:48*
%MOMM*%
%LPD*%
G04 APERTURE LIST*
%ADD10R,2.600000X1.400000*%
%ADD11R,1.800000X1.800000*%
%ADD12R,1.800000X1.400000*%
%ADD13R,1.100000X0.700000*%
%ADD14R,1.200000X0.550000*%
%ADD15R,0.550000X1.200000*%
%ADD16R,0.500000X0.550000*%
%ADD17R,1.016000X1.016000*%
%ADD18R,0.550000X0.500000*%
%ADD19R,0.914400X0.914400*%
%ADD20R,1.700000X2.000000*%
%ADD21R,0.900000X0.800000*%
%ADD22R,0.800000X0.900000*%
%ADD23R,1.270000X1.050000*%
G04 APERTURE END LIST*
D10*
X65570000Y-65950000D03*
X65570000Y-50250000D03*
D11*
X75170000Y-51150000D03*
D12*
X75170000Y-65950000D03*
D13*
X76050000Y-64650000D03*
X76050000Y-63550000D03*
X76050000Y-62450000D03*
X76050000Y-61350000D03*
X76050000Y-60250000D03*
X76050000Y-59150000D03*
X76050000Y-58050000D03*
X76050000Y-56950000D03*
X76050000Y-55850000D03*
D14*
X67710000Y-96870000D03*
X67710000Y-95920000D03*
X67710000Y-94970000D03*
X70310000Y-96870000D03*
X70310000Y-94970000D03*
D15*
X83740000Y-84399900D03*
X82790000Y-84399900D03*
X81840000Y-84399900D03*
X81840000Y-87000100D03*
X82790000Y-87000100D03*
X83740000Y-87000100D03*
D16*
X91508000Y-91090000D03*
X90492000Y-91090000D03*
D17*
X91989000Y-74550000D03*
X90211000Y-74550000D03*
X87069000Y-74540000D03*
X85291000Y-74540000D03*
D18*
X66260000Y-74522000D03*
X66260000Y-75538000D03*
X67440000Y-74532000D03*
X67440000Y-75548000D03*
D16*
X94482000Y-91950000D03*
X95498000Y-91950000D03*
X116498000Y-79310000D03*
X115482000Y-79310000D03*
D18*
X81860000Y-89428000D03*
X81860000Y-88412000D03*
D16*
X87348000Y-91100000D03*
X86332000Y-91100000D03*
X79708000Y-88410000D03*
X78692000Y-88410000D03*
D18*
X74180000Y-95342000D03*
X74180000Y-96358000D03*
D16*
X70478000Y-88990000D03*
X69462000Y-88990000D03*
D19*
X81669000Y-59140000D03*
X79891000Y-59140000D03*
D20*
X85350000Y-82500000D03*
X85350000Y-77500000D03*
D18*
X88640000Y-74542000D03*
X88640000Y-75558000D03*
D16*
X91888000Y-95880000D03*
X90872000Y-95880000D03*
D21*
X116290000Y-71410000D03*
X114690000Y-71410000D03*
D22*
X114410000Y-79320000D03*
X114410000Y-77720000D03*
D18*
X108400000Y-71122000D03*
X108400000Y-72138000D03*
D16*
X107832000Y-78910000D03*
X108848000Y-78910000D03*
X116468000Y-77910000D03*
X115452000Y-77910000D03*
D22*
X112860000Y-79300000D03*
X112860000Y-77700000D03*
D21*
X79880000Y-60710000D03*
X81480000Y-60710000D03*
D16*
X88432000Y-91090000D03*
X89448000Y-91090000D03*
D18*
X80700000Y-88412000D03*
X80700000Y-89428000D03*
X85030000Y-86048000D03*
X85030000Y-85032000D03*
D21*
X72580000Y-94240000D03*
X74180000Y-94240000D03*
D23*
X79980000Y-84424000D03*
X79980000Y-86456000D03*
M02*
